<svg width="173" height="236" viewBox="0 0 173 236" fill="none" xmlns="http://www.w3.org/2000/svg">
<path d="M13.136 21.446H18.008V23H11.204V13.76H13.136V21.446ZM22.5412 23.14C21.8038 23.14 21.1598 22.9953 20.6092 22.706C20.0678 22.4167 19.6478 22.0013 19.3492 21.46C19.0505 20.9187 18.9012 20.2653 18.9012 19.5C18.9012 18.7347 19.0505 18.0813 19.3492 17.54C19.6478 16.9987 20.0632 16.5833 20.5952 16.294C21.1365 16.0047 21.7525 15.86 22.4432 15.86C23.1525 15.86 23.7545 16.0047 24.2492 16.294C24.7438 16.574 25.1218 16.9613 25.3832 17.456C25.6445 17.9413 25.7752 18.4967 25.7752 19.122C25.7752 19.3087 25.7705 19.486 25.7612 19.654C25.7518 19.822 25.7378 19.9713 25.7192 20.102H20.1332V18.772H24.8792L23.9552 19.108C23.9552 18.52 23.8198 18.0673 23.5492 17.75C23.2878 17.4327 22.9145 17.274 22.4292 17.274C22.0745 17.274 21.7665 17.358 21.5052 17.526C21.2532 17.694 21.0618 17.946 20.9312 18.282C20.8005 18.6087 20.7352 19.024 20.7352 19.528C20.7352 20.0227 20.8052 20.4333 20.9452 20.76C21.0945 21.0773 21.2998 21.3153 21.5612 21.474C21.8318 21.6327 22.1538 21.712 22.5272 21.712C22.9378 21.712 23.2692 21.6327 23.5212 21.474C23.7732 21.3153 23.9692 21.096 24.1092 20.816L25.6352 21.404C25.4858 21.768 25.2572 22.0807 24.9492 22.342C24.6505 22.6033 24.2912 22.804 23.8712 22.944C23.4605 23.0747 23.0172 23.14 22.5412 23.14ZM31.7738 16H33.7618L31.1018 23H28.8898L26.2298 16H28.2738L30.0098 21.53L31.7738 16ZM37.9904 23.14C37.253 23.14 36.609 22.9953 36.0584 22.706C35.517 22.4167 35.097 22.0013 34.7984 21.46C34.4997 20.9187 34.3504 20.2653 34.3504 19.5C34.3504 18.7347 34.4997 18.0813 34.7984 17.54C35.097 16.9987 35.5124 16.5833 36.0444 16.294C36.5857 16.0047 37.2017 15.86 37.8924 15.86C38.6017 15.86 39.2037 16.0047 39.6984 16.294C40.193 16.574 40.571 16.9613 40.8324 17.456C41.0937 17.9413 41.2244 18.4967 41.2244 19.122C41.2244 19.3087 41.2197 19.486 41.2104 19.654C41.201 19.822 41.187 19.9713 41.1684 20.102H35.5824V18.772H40.3284L39.4044 19.108C39.4044 18.52 39.269 18.0673 38.9984 17.75C38.737 17.4327 38.3637 17.274 37.8784 17.274C37.5237 17.274 37.2157 17.358 36.9544 17.526C36.7024 17.694 36.511 17.946 36.3804 18.282C36.2497 18.6087 36.1844 19.024 36.1844 19.528C36.1844 20.0227 36.2544 20.4333 36.3944 20.76C36.5437 21.0773 36.749 21.3153 37.0104 21.474C37.281 21.6327 37.603 21.712 37.9764 21.712C38.387 21.712 38.7184 21.6327 38.9704 21.474C39.2224 21.3153 39.4184 21.096 39.5584 20.816L41.0844 21.404C40.935 21.768 40.7064 22.0807 40.3984 22.342C40.0997 22.6033 39.7404 22.804 39.3204 22.944C38.9097 23.0747 38.4664 23.14 37.9904 23.14ZM44.7398 12.934V20.844C44.7398 21.1707 44.7958 21.3993 44.9078 21.53C45.0198 21.6607 45.2065 21.726 45.4678 21.726C45.6265 21.726 45.7571 21.7167 45.8598 21.698C45.9625 21.67 46.0931 21.6327 46.2518 21.586L46.0838 22.846C45.9251 22.9393 45.7245 23.0093 45.4818 23.056C45.2485 23.112 45.0151 23.14 44.7818 23.14C44.1005 23.14 43.6011 22.9767 43.2838 22.65C42.9758 22.314 42.8218 21.782 42.8218 21.054V12.934H44.7398ZM54.491 15.86C55.2003 15.86 55.821 16.0047 56.353 16.294C56.8943 16.5833 57.3143 16.9987 57.613 17.54C57.921 18.0813 58.075 18.7347 58.075 19.5C58.075 20.256 57.921 20.9093 57.613 21.46C57.3143 22.0013 56.8943 22.4167 56.353 22.706C55.821 22.9953 55.2003 23.14 54.491 23.14C53.791 23.14 53.1703 22.9953 52.629 22.706C52.0877 22.4167 51.663 22.0013 51.355 21.46C51.0563 20.9093 50.907 20.256 50.907 19.5C50.907 18.7347 51.0563 18.0813 51.355 17.54C51.663 16.9987 52.0877 16.5833 52.629 16.294C53.1703 16.0047 53.791 15.86 54.491 15.86ZM54.491 17.288C54.1363 17.288 53.833 17.372 53.581 17.54C53.3383 17.6987 53.1517 17.9413 53.021 18.268C52.8903 18.5947 52.825 19.0053 52.825 19.5C52.825 19.9947 52.8903 20.4053 53.021 20.732C53.1517 21.0587 53.3383 21.306 53.581 21.474C53.833 21.6327 54.1363 21.712 54.491 21.712C54.8363 21.712 55.1303 21.6327 55.373 21.474C55.625 21.306 55.8163 21.0587 55.947 20.732C56.0777 20.4053 56.143 19.9947 56.143 19.5C56.143 19.0053 56.0777 18.5947 55.947 18.268C55.8163 17.9413 55.625 17.6987 55.373 17.54C55.1303 17.372 54.8363 17.288 54.491 17.288ZM62.7335 12.794C63.0602 12.794 63.3542 12.8313 63.6155 12.906C63.8862 12.9713 64.0868 13.0553 64.2175 13.158L63.9515 14.432C63.8488 14.3667 63.7322 14.3153 63.6015 14.278C63.4708 14.2407 63.3168 14.222 63.1395 14.222C62.7755 14.222 62.4862 14.306 62.2715 14.474C62.0568 14.6327 61.9495 14.908 61.9495 15.3V16.266L62.0335 16.644V23H60.1155V15.16C60.1155 14.768 60.1808 14.4227 60.3115 14.124C60.4422 13.8253 60.6242 13.578 60.8575 13.382C61.0908 13.186 61.3662 13.0413 61.6835 12.948C62.0102 12.8453 62.3602 12.794 62.7335 12.794ZM64.1615 16V17.428H58.8975V16H64.1615ZM72.4282 15.86C73.0535 15.86 73.5809 15.9533 74.0102 16.14C74.4489 16.3173 74.7989 16.5647 75.0602 16.882C75.3309 17.19 75.5222 17.5353 75.6342 17.918L73.8422 18.562C73.7489 18.142 73.5902 17.8247 73.3662 17.61C73.1422 17.3953 72.8389 17.288 72.4562 17.288C72.1015 17.288 71.7982 17.372 71.5462 17.54C71.2942 17.6987 71.1029 17.946 70.9722 18.282C70.8415 18.6087 70.7762 19.0193 70.7762 19.514C70.7762 20.0087 70.8415 20.4193 70.9722 20.746C71.1122 21.0727 71.3082 21.3153 71.5602 21.474C71.8215 21.6327 72.1249 21.712 72.4702 21.712C72.7502 21.712 72.9882 21.6653 73.1842 21.572C73.3802 21.4693 73.5389 21.3247 73.6602 21.138C73.7909 20.9513 73.8795 20.7273 73.9262 20.466L75.6622 21.026C75.5595 21.446 75.3682 21.8147 75.0882 22.132C74.8082 22.4493 74.4489 22.6967 74.0102 22.874C73.5715 23.0513 73.0629 23.14 72.4842 23.14C71.7655 23.14 71.1309 22.9953 70.5802 22.706C70.0295 22.4167 69.6049 22.0013 69.3062 21.46C69.0075 20.9187 68.8582 20.2653 68.8582 19.5C68.8582 18.7347 69.0075 18.0813 69.3062 17.54C69.6049 16.9987 70.0249 16.5833 70.5662 16.294C71.1075 16.0047 71.7282 15.86 72.4282 15.86ZM80.3445 15.86C81.0539 15.86 81.6745 16.0047 82.2065 16.294C82.7479 16.5833 83.1679 16.9987 83.4665 17.54C83.7745 18.0813 83.9285 18.7347 83.9285 19.5C83.9285 20.256 83.7745 20.9093 83.4665 21.46C83.1679 22.0013 82.7479 22.4167 82.2065 22.706C81.6745 22.9953 81.0539 23.14 80.3445 23.14C79.6445 23.14 79.0239 22.9953 78.4825 22.706C77.9412 22.4167 77.5165 22.0013 77.2085 21.46C76.9099 20.9093 76.7605 20.256 76.7605 19.5C76.7605 18.7347 76.9099 18.0813 77.2085 17.54C77.5165 16.9987 77.9412 16.5833 78.4825 16.294C79.0239 16.0047 79.6445 15.86 80.3445 15.86ZM80.3445 17.288C79.9899 17.288 79.6865 17.372 79.4345 17.54C79.1919 17.6987 79.0052 17.9413 78.8745 18.268C78.7439 18.5947 78.6785 19.0053 78.6785 19.5C78.6785 19.9947 78.7439 20.4053 78.8745 20.732C79.0052 21.0587 79.1919 21.306 79.4345 21.474C79.6865 21.6327 79.9899 21.712 80.3445 21.712C80.6899 21.712 80.9839 21.6327 81.2265 21.474C81.4785 21.306 81.6699 21.0587 81.8005 20.732C81.9312 20.4053 81.9965 19.9947 81.9965 19.5C81.9965 19.0053 81.9312 18.5947 81.8005 18.268C81.6699 17.9413 81.4785 17.6987 81.2265 17.54C80.9839 17.372 80.6899 17.288 80.3445 17.288ZM88.7254 15.86C89.4347 15.86 90.0554 16.0047 90.5874 16.294C91.1287 16.5833 91.5487 16.9987 91.8474 17.54C92.1554 18.0813 92.3094 18.7347 92.3094 19.5C92.3094 20.256 92.1554 20.9093 91.8474 21.46C91.5487 22.0013 91.1287 22.4167 90.5874 22.706C90.0554 22.9953 89.4347 23.14 88.7254 23.14C88.0254 23.14 87.4047 22.9953 86.8634 22.706C86.3221 22.4167 85.8974 22.0013 85.5894 21.46C85.2907 20.9093 85.1414 20.256 85.1414 19.5C85.1414 18.7347 85.2907 18.0813 85.5894 17.54C85.8974 16.9987 86.3221 16.5833 86.8634 16.294C87.4047 16.0047 88.0254 15.86 88.7254 15.86ZM88.7254 17.288C88.3707 17.288 88.0674 17.372 87.8154 17.54C87.5727 17.6987 87.3861 17.9413 87.2554 18.268C87.1247 18.5947 87.0594 19.0053 87.0594 19.5C87.0594 19.9947 87.1247 20.4053 87.2554 20.732C87.3861 21.0587 87.5727 21.306 87.8154 21.474C88.0674 21.6327 88.3707 21.712 88.7254 21.712C89.0707 21.712 89.3647 21.6327 89.6074 21.474C89.8594 21.306 90.0507 21.0587 90.1814 20.732C90.3121 20.4053 90.3774 19.9947 90.3774 19.5C90.3774 19.0053 90.3121 18.5947 90.1814 18.268C90.0507 17.9413 89.8594 17.6987 89.6074 17.54C89.3647 17.372 89.0707 17.288 88.7254 17.288ZM101.04 16L97.8063 19.374L97.4283 19.556L95.3283 21.81L95.3003 19.766L98.8563 16H101.04ZM95.8323 12.934V23H93.9143V12.934H95.8323ZM98.0723 18.226L101.208 23H99.0383L96.7563 19.346L98.0723 18.226ZM103.302 14.992C102.901 14.992 102.602 14.908 102.406 14.74C102.21 14.5627 102.112 14.306 102.112 13.97C102.112 13.6247 102.21 13.368 102.406 13.2C102.602 13.0227 102.901 12.934 103.302 12.934C103.703 12.934 104.002 13.0227 104.198 13.2C104.394 13.368 104.492 13.6247 104.492 13.97C104.492 14.306 104.394 14.5627 104.198 14.74C104.002 14.908 103.703 14.992 103.302 14.992ZM104.254 16V23H102.336V16H104.254ZM106.287 23V16H108.009L108.121 18.1L107.883 17.876C107.995 17.4187 108.173 17.0407 108.415 16.742C108.658 16.4433 108.952 16.224 109.297 16.084C109.652 15.9347 110.039 15.86 110.459 15.86C110.945 15.86 111.374 15.9533 111.747 16.14C112.13 16.3267 112.429 16.6113 112.643 16.994C112.867 17.3673 112.979 17.8387 112.979 18.408V23H111.061V18.954C111.061 18.3567 110.945 17.946 110.711 17.722C110.478 17.4887 110.175 17.372 109.801 17.372C109.54 17.372 109.283 17.4373 109.031 17.568C108.789 17.6893 108.588 17.89 108.429 18.17C108.28 18.45 108.205 18.8233 108.205 19.29V23H106.287ZM121.409 14.334L121.633 15.706C121.596 15.706 121.554 15.706 121.507 15.706C121.47 15.6967 121.428 15.692 121.381 15.692C120.952 15.692 120.63 15.79 120.415 15.986C120.201 16.1727 120.093 16.434 120.093 16.77L119.309 16.448C119.309 16.0747 119.384 15.7293 119.533 15.412C119.683 15.0853 119.902 14.824 120.191 14.628C120.49 14.432 120.845 14.334 121.255 14.334C121.274 14.334 121.297 14.334 121.325 14.334C121.353 14.334 121.381 14.334 121.409 14.334ZM119.113 21.684C119.869 21.684 120.453 21.8473 120.863 22.174C121.274 22.5007 121.479 22.958 121.479 23.546C121.479 24.078 121.325 24.526 121.017 24.89C120.709 25.2633 120.275 25.5433 119.715 25.73C119.165 25.9167 118.525 26.01 117.797 26.01C116.593 26.01 115.711 25.842 115.151 25.506C114.601 25.17 114.325 24.7313 114.325 24.19C114.325 23.8073 114.47 23.4853 114.759 23.224C115.058 22.9627 115.548 22.818 116.229 22.79L116.159 23.014C115.674 22.93 115.301 22.7713 115.039 22.538C114.787 22.2953 114.661 21.964 114.661 21.544C114.661 21.1147 114.825 20.7647 115.151 20.494C115.487 20.214 115.94 20.0507 116.509 20.004L117.349 20.396H117.153C116.752 20.424 116.467 20.508 116.299 20.648C116.141 20.7787 116.061 20.928 116.061 21.096C116.061 21.292 116.136 21.4413 116.285 21.544C116.444 21.6373 116.668 21.684 116.957 21.684H119.113ZM117.811 24.694C118.297 24.694 118.693 24.652 119.001 24.568C119.319 24.484 119.552 24.3767 119.701 24.246C119.86 24.1153 119.939 23.9707 119.939 23.812C119.939 23.6347 119.869 23.49 119.729 23.378C119.589 23.2753 119.337 23.224 118.973 23.224H116.607C116.383 23.224 116.197 23.28 116.047 23.392C115.907 23.504 115.837 23.658 115.837 23.854C115.837 24.1153 116.01 24.3207 116.355 24.47C116.71 24.6193 117.195 24.694 117.811 24.694ZM117.825 15.86C118.479 15.86 119.043 15.958 119.519 16.154C120.005 16.3407 120.373 16.6113 120.625 16.966C120.887 17.3207 121.017 17.7453 121.017 18.24C121.017 18.7253 120.887 19.1453 120.625 19.5C120.373 19.8547 120.005 20.13 119.519 20.326C119.043 20.5127 118.479 20.606 117.825 20.606C116.789 20.606 115.996 20.396 115.445 19.976C114.904 19.5467 114.633 18.968 114.633 18.24C114.633 17.7453 114.759 17.3207 115.011 16.966C115.273 16.6113 115.641 16.3407 116.117 16.154C116.593 15.958 117.163 15.86 117.825 15.86ZM117.825 17.064C117.452 17.064 117.144 17.1667 116.901 17.372C116.659 17.5773 116.537 17.862 116.537 18.226C116.537 18.59 116.659 18.8793 116.901 19.094C117.144 19.2993 117.452 19.402 117.825 19.402C118.199 19.402 118.502 19.2993 118.735 19.094C118.978 18.8793 119.099 18.59 119.099 18.226C119.099 17.862 118.978 17.5773 118.735 17.372C118.502 17.1667 118.199 17.064 117.825 17.064ZM129.718 23.14C129.009 23.14 128.36 23.014 127.772 22.762C127.193 22.51 126.722 22.1553 126.358 21.698L127.464 20.578C127.688 20.914 127.987 21.1893 128.36 21.404C128.733 21.6187 129.177 21.726 129.69 21.726C130.054 21.726 130.343 21.6747 130.558 21.572C130.782 21.46 130.894 21.2873 130.894 21.054C130.894 20.9047 130.843 20.7787 130.74 20.676C130.637 20.564 130.432 20.4753 130.124 20.41L128.892 20.158C128.08 19.99 127.501 19.738 127.156 19.402C126.82 19.0567 126.652 18.6133 126.652 18.072C126.652 17.6893 126.764 17.33 126.988 16.994C127.221 16.658 127.567 16.3873 128.024 16.182C128.481 15.9673 129.051 15.86 129.732 15.86C130.432 15.86 131.039 15.972 131.552 16.196C132.075 16.4107 132.485 16.7327 132.784 17.162L131.636 18.282C131.431 17.9553 131.16 17.708 130.824 17.54C130.497 17.3627 130.152 17.274 129.788 17.274C129.527 17.274 129.303 17.302 129.116 17.358C128.929 17.414 128.789 17.4933 128.696 17.596C128.603 17.6893 128.556 17.8107 128.556 17.96C128.556 18.1093 128.621 18.24 128.752 18.352C128.883 18.4547 129.121 18.5433 129.466 18.618L130.894 18.912C131.585 19.052 132.079 19.29 132.378 19.626C132.677 19.9527 132.826 20.3493 132.826 20.816C132.826 21.264 132.705 21.6653 132.462 22.02C132.229 22.3653 131.879 22.6407 131.412 22.846C130.955 23.042 130.39 23.14 129.718 23.14ZM141.482 16L138.248 19.374L137.87 19.556L135.77 21.81L135.742 19.766L139.298 16H141.482ZM136.274 12.934V23H134.356V12.934H136.274ZM138.514 18.226L141.65 23H139.48L137.198 19.346L138.514 18.226ZM143.744 14.992C143.342 14.992 143.044 14.908 142.848 14.74C142.652 14.5627 142.554 14.306 142.554 13.97C142.554 13.6247 142.652 13.368 142.848 13.2C143.044 13.0227 143.342 12.934 143.744 12.934C144.145 12.934 144.444 13.0227 144.64 13.2C144.836 13.368 144.934 13.6247 144.934 13.97C144.934 14.306 144.836 14.5627 144.64 14.74C144.444 14.908 144.145 14.992 143.744 14.992ZM144.696 16V23H142.778V16H144.696ZM148.619 12.934V20.844C148.619 21.1707 148.675 21.3993 148.787 21.53C148.899 21.6607 149.085 21.726 149.347 21.726C149.505 21.726 149.636 21.7167 149.739 21.698C149.841 21.67 149.972 21.6327 150.131 21.586L149.963 22.846C149.804 22.9393 149.603 23.0093 149.361 23.056C149.127 23.112 148.894 23.14 148.661 23.14C147.979 23.14 147.48 22.9767 147.163 22.65C146.855 22.314 146.701 21.782 146.701 21.054V12.934H148.619ZM153.089 12.934V20.844C153.089 21.1707 153.145 21.3993 153.257 21.53C153.369 21.6607 153.556 21.726 153.817 21.726C153.976 21.726 154.107 21.7167 154.209 21.698C154.312 21.67 154.443 21.6327 154.601 21.586L154.433 22.846C154.275 22.9393 154.074 23.0093 153.831 23.056C153.598 23.112 153.365 23.14 153.131 23.14C152.45 23.14 151.951 22.9767 151.633 22.65C151.325 22.314 151.171 21.782 151.171 21.054V12.934H153.089ZM158.47 23.14C157.761 23.14 157.112 23.014 156.524 22.762C155.945 22.51 155.474 22.1553 155.11 21.698L156.216 20.578C156.44 20.914 156.739 21.1893 157.112 21.404C157.485 21.6187 157.929 21.726 158.442 21.726C158.806 21.726 159.095 21.6747 159.31 21.572C159.534 21.46 159.646 21.2873 159.646 21.054C159.646 20.9047 159.595 20.7787 159.492 20.676C159.389 20.564 159.184 20.4753 158.876 20.41L157.644 20.158C156.832 19.99 156.253 19.738 155.908 19.402C155.572 19.0567 155.404 18.6133 155.404 18.072C155.404 17.6893 155.516 17.33 155.74 16.994C155.973 16.658 156.319 16.3873 156.776 16.182C157.233 15.9673 157.803 15.86 158.484 15.86C159.184 15.86 159.791 15.972 160.304 16.196C160.827 16.4107 161.237 16.7327 161.536 17.162L160.388 18.282C160.183 17.9553 159.912 17.708 159.576 17.54C159.249 17.3627 158.904 17.274 158.54 17.274C158.279 17.274 158.055 17.302 157.868 17.358C157.681 17.414 157.541 17.4933 157.448 17.596C157.355 17.6893 157.308 17.8107 157.308 17.96C157.308 18.1093 157.373 18.24 157.504 18.352C157.635 18.4547 157.873 18.5433 158.218 18.618L159.646 18.912C160.337 19.052 160.831 19.29 161.13 19.626C161.429 19.9527 161.578 20.3493 161.578 20.816C161.578 21.264 161.457 21.6653 161.214 22.02C160.981 22.3653 160.631 22.6407 160.164 22.846C159.707 23.042 159.142 23.14 158.47 23.14Z" fill="black"/>
<path d="M21.512 49V39.76H24.802C25.894 39.76 26.692 39.9887 27.196 40.446C27.7 40.9033 27.952 41.524 27.952 42.308C27.952 42.7747 27.8167 43.1993 27.546 43.582C27.2753 43.9553 26.8927 44.1933 26.398 44.296V44.31C26.9487 44.4127 27.3827 44.6647 27.7 45.066C28.0267 45.458 28.19 45.906 28.19 46.41C28.19 47.194 27.896 47.824 27.308 48.3C26.72 48.7667 25.88 49 24.788 49H21.512ZM22.632 47.95H25.054C25.7167 47.95 26.2067 47.8147 26.524 47.544C26.8507 47.2733 27.014 46.8953 27.014 46.41C27.014 45.9153 26.8507 45.5373 26.524 45.276C26.2067 45.0053 25.7167 44.87 25.054 44.87H22.632V47.95ZM22.632 43.82H24.816C26.1227 43.82 26.776 43.316 26.776 42.308C26.776 41.3093 26.1227 40.81 24.816 40.81H22.632V43.82ZM33.3745 49.14C32.7118 49.14 32.1192 48.9953 31.5965 48.706C31.0832 48.4167 30.6818 48.0013 30.3925 47.46C30.1032 46.9093 29.9585 46.256 29.9585 45.5C29.9585 44.744 30.1032 44.0953 30.3925 43.554C30.6818 43.0033 31.0785 42.5833 31.5825 42.294C32.0865 42.0047 32.6605 41.86 33.3045 41.86C33.9578 41.86 34.5132 42 34.9705 42.28C35.4372 42.56 35.7918 42.9427 36.0345 43.428C36.2772 43.904 36.3985 44.4407 36.3985 45.038C36.3985 45.1967 36.3938 45.3413 36.3845 45.472C36.3752 45.6027 36.3612 45.7193 36.3425 45.822H30.6865V44.828H35.8525L35.2785 44.94C35.2785 44.268 35.0918 43.75 34.7185 43.386C34.3545 43.022 33.8738 42.84 33.2765 42.84C32.8192 42.84 32.4225 42.9473 32.0865 43.162C31.7598 43.3673 31.5032 43.6707 31.3165 44.072C31.1392 44.464 31.0505 44.94 31.0505 45.5C31.0505 46.0507 31.1438 46.5267 31.3305 46.928C31.5172 47.3293 31.7785 47.6373 32.1145 47.852C32.4598 48.0573 32.8705 48.16 33.3465 48.16C33.8598 48.16 34.2752 48.062 34.5925 47.866C34.9192 47.67 35.1805 47.404 35.3765 47.068L36.2585 47.586C36.0812 47.9033 35.8525 48.1787 35.5725 48.412C35.3018 48.6453 34.9798 48.8273 34.6065 48.958C34.2425 49.0793 33.8318 49.14 33.3745 49.14ZM44.4226 40.712L44.6746 41.706C44.6652 41.706 44.6512 41.706 44.6326 41.706C44.6139 41.706 44.5952 41.706 44.5766 41.706C44.1192 41.706 43.7646 41.7993 43.5126 41.986C43.2699 42.1633 43.1486 42.4527 43.1486 42.854L42.4626 42.504C42.4626 42.14 42.5466 41.8227 42.7146 41.552C42.8826 41.2813 43.1112 41.076 43.4006 40.936C43.6899 40.7867 44.0072 40.712 44.3526 40.712C44.3619 40.712 44.3712 40.712 44.3806 40.712C44.3992 40.712 44.4132 40.712 44.4226 40.712ZM42.2946 48.104C42.9572 48.104 43.4752 48.258 43.8486 48.566C44.2219 48.8647 44.4086 49.266 44.4086 49.77C44.4086 50.2273 44.2546 50.624 43.9466 50.96C43.6479 51.296 43.2419 51.5527 42.7286 51.73C42.2246 51.9167 41.6552 52.01 41.0206 52.01C39.9192 52.01 39.0932 51.8233 38.5426 51.45C38.0012 51.0767 37.7306 50.6287 37.7306 50.106C37.7306 49.7327 37.8519 49.3967 38.0946 49.098C38.3466 48.8087 38.7666 48.6453 39.3546 48.608L39.2566 48.818C38.9392 48.734 38.6686 48.594 38.4446 48.398C38.2299 48.1927 38.1226 47.8987 38.1226 47.516C38.1226 47.1333 38.2626 46.8067 38.5426 46.536C38.8319 46.256 39.2566 46.0833 39.8166 46.018L40.5586 46.396H40.4186C39.9612 46.4427 39.6346 46.5593 39.4386 46.746C39.2519 46.9233 39.1586 47.1193 39.1586 47.334C39.1586 47.5953 39.2519 47.7913 39.4386 47.922C39.6346 48.0433 39.9052 48.104 40.2506 48.104H42.2946ZM41.0066 51.072C41.5479 51.072 41.9912 51.016 42.3366 50.904C42.6912 50.792 42.9526 50.6473 43.1206 50.47C43.2886 50.2927 43.3726 50.1013 43.3726 49.896C43.3726 49.644 43.2699 49.4433 43.0646 49.294C42.8686 49.1447 42.5092 49.07 41.9866 49.07H39.8306C39.5319 49.07 39.2799 49.1447 39.0746 49.294C38.8692 49.4527 38.7666 49.6673 38.7666 49.938C38.7666 50.2833 38.9626 50.5587 39.3546 50.764C39.7559 50.9693 40.3066 51.072 41.0066 51.072ZM40.9086 41.86C41.4686 41.86 41.9632 41.9627 42.3926 42.168C42.8312 42.364 43.1719 42.6393 43.4146 42.994C43.6572 43.3487 43.7786 43.7593 43.7786 44.226C43.7786 44.6833 43.6572 45.094 43.4146 45.458C43.1719 45.8127 42.8312 46.0927 42.3926 46.298C41.9632 46.494 41.4686 46.592 40.9086 46.592C39.9846 46.592 39.2752 46.3727 38.7806 45.934C38.2859 45.486 38.0386 44.9167 38.0386 44.226C38.0386 43.7593 38.1599 43.3487 38.4026 42.994C38.6546 42.6393 38.9952 42.364 39.4246 42.168C39.8539 41.9627 40.3486 41.86 40.9086 41.86ZM40.9086 42.77C40.4232 42.77 40.0172 42.9053 39.6906 43.176C39.3639 43.4373 39.2006 43.7873 39.2006 44.226C39.2006 44.6553 39.3639 45.0053 39.6906 45.276C40.0172 45.5467 40.4232 45.682 40.9086 45.682C41.3939 45.682 41.7999 45.5467 42.1266 45.276C42.4532 45.0053 42.6166 44.6553 42.6166 44.226C42.6166 43.7873 42.4532 43.4373 42.1266 43.176C41.7999 42.9053 41.3939 42.77 40.9086 42.77ZM46.5397 40.656C46.2877 40.656 46.0824 40.5813 45.9237 40.432C45.7744 40.2733 45.6997 40.068 45.6997 39.816C45.6997 39.564 45.7744 39.3633 45.9237 39.214C46.0824 39.0553 46.2877 38.976 46.5397 38.976C46.7917 38.976 46.9924 39.0553 47.1417 39.214C47.3004 39.3633 47.3797 39.564 47.3797 39.816C47.3797 40.068 47.3004 40.2733 47.1417 40.432C46.9924 40.5813 46.7917 40.656 46.5397 40.656ZM47.0997 42V49H45.9797V42H47.0997ZM49.6985 49V42H50.6785L50.7765 43.568L50.5945 43.414C50.7438 43.0407 50.9445 42.742 51.1965 42.518C51.4485 42.2847 51.7378 42.1167 52.0645 42.014C52.4005 41.9113 52.7458 41.86 53.1005 41.86C53.6045 41.86 54.0618 41.958 54.4725 42.154C54.8832 42.3407 55.2098 42.63 55.4525 43.022C55.7045 43.414 55.8305 43.9133 55.8305 44.52V49H54.7105V44.912C54.7105 44.1373 54.5425 43.6007 54.2065 43.302C53.8798 42.994 53.4738 42.84 52.9885 42.84C52.6525 42.84 52.3165 42.9193 51.9805 43.078C51.6445 43.2367 51.3645 43.4933 51.1405 43.848C50.9258 44.2027 50.8185 44.6787 50.8185 45.276V49H49.6985ZM58.3665 49V42H59.3465L59.4445 43.568L59.2625 43.414C59.4118 43.0407 59.6125 42.742 59.8645 42.518C60.1165 42.2847 60.4058 42.1167 60.7325 42.014C61.0685 41.9113 61.4138 41.86 61.7685 41.86C62.2725 41.86 62.7298 41.958 63.1405 42.154C63.5511 42.3407 63.8778 42.63 64.1205 43.022C64.3725 43.414 64.4985 43.9133 64.4985 44.52V49H63.3785V44.912C63.3785 44.1373 63.2105 43.6007 62.8745 43.302C62.5478 42.994 62.1418 42.84 61.6565 42.84C61.3205 42.84 60.9845 42.9193 60.6485 43.078C60.3125 43.2367 60.0325 43.4933 59.8085 43.848C59.5938 44.2027 59.4865 44.6787 59.4865 45.276V49H58.3665ZM69.9604 49.14C69.2978 49.14 68.7051 48.9953 68.1824 48.706C67.6691 48.4167 67.2678 48.0013 66.9784 47.46C66.6891 46.9093 66.5444 46.256 66.5444 45.5C66.5444 44.744 66.6891 44.0953 66.9784 43.554C67.2678 43.0033 67.6644 42.5833 68.1684 42.294C68.6724 42.0047 69.2464 41.86 69.8904 41.86C70.5438 41.86 71.0991 42 71.5564 42.28C72.0231 42.56 72.3778 42.9427 72.6204 43.428C72.8631 43.904 72.9844 44.4407 72.9844 45.038C72.9844 45.1967 72.9798 45.3413 72.9704 45.472C72.9611 45.6027 72.9471 45.7193 72.9284 45.822H67.2724V44.828H72.4384L71.8644 44.94C71.8644 44.268 71.6778 43.75 71.3044 43.386C70.9404 43.022 70.4598 42.84 69.8624 42.84C69.4051 42.84 69.0084 42.9473 68.6724 43.162C68.3458 43.3673 68.0891 43.6707 67.9024 44.072C67.7251 44.464 67.6364 44.94 67.6364 45.5C67.6364 46.0507 67.7298 46.5267 67.9164 46.928C68.1031 47.3293 68.3644 47.6373 68.7004 47.852C69.0458 48.0573 69.4564 48.16 69.9324 48.16C70.4458 48.16 70.8611 48.062 71.1784 47.866C71.5051 47.67 71.7664 47.404 71.9624 47.068L72.8444 47.586C72.6671 47.9033 72.4384 48.1787 72.1584 48.412C71.8878 48.6453 71.5658 48.8273 71.1924 48.958C70.8284 49.0793 70.4178 49.14 69.9604 49.14ZM75.1145 49V42H76.0245L76.1785 43.148C76.3745 42.7187 76.6592 42.3967 77.0325 42.182C77.4152 41.9673 77.8772 41.86 78.4185 41.86C78.5398 41.86 78.6705 41.8693 78.8105 41.888C78.9598 41.9067 79.0858 41.944 79.1885 42L78.9925 43.022C78.8898 42.9847 78.7778 42.9567 78.6565 42.938C78.5352 42.9193 78.3625 42.91 78.1385 42.91C77.8492 42.91 77.5552 42.994 77.2565 43.162C76.9672 43.33 76.7245 43.5867 76.5285 43.932C76.3325 44.268 76.2345 44.6973 76.2345 45.22V49H75.1145Z" fill="black"/>
<path d="M20 69C20 66.7909 21.7909 65 24 65H61V73H24C21.7909 73 20 71.2091 20 69Z" fill="#F27830"/>
<path d="M61 65H116C118.209 65 120 66.7909 120 69C120 71.2091 118.209 73 116 73H61V65Z" fill="#D9D9D9"/>
<path d="M134.392 73V70.924H130.528V70.216L134.14 65.08H135.352V70.096H136.756V70.924H135.352V73H134.392ZM131.548 70.096H134.392V67.132C134.392 66.924 134.396 66.712 134.404 66.496C134.42 66.28 134.432 66.068 134.44 65.86H134.416C134.32 66.06 134.196 66.284 134.044 66.532C133.892 66.78 133.752 66.996 133.624 67.18L131.548 70.096ZM139.644 73V67.192C139.644 67.056 139.644 66.912 139.644 66.76C139.652 66.6 139.66 66.436 139.668 66.268C139.396 66.532 139.08 66.764 138.72 66.964C138.36 67.156 137.992 67.296 137.616 67.384L137.364 66.508C137.508 66.492 137.688 66.44 137.904 66.352C138.128 66.256 138.36 66.14 138.6 66.004C138.848 65.86 139.076 65.708 139.284 65.548C139.492 65.388 139.652 65.232 139.764 65.08H140.604V73H139.644ZM143.984 73L149.024 65.08H149.936L144.896 73H143.984ZM144.212 64.96C144.604 64.96 144.94 65.052 145.22 65.236C145.508 65.412 145.728 65.664 145.88 65.992C146.04 66.32 146.12 66.704 146.12 67.144C146.12 67.584 146.04 67.968 145.88 68.296C145.728 68.624 145.508 68.88 145.22 69.064C144.94 69.24 144.604 69.328 144.212 69.328C143.828 69.328 143.492 69.24 143.204 69.064C142.916 68.88 142.692 68.624 142.532 68.296C142.38 67.968 142.304 67.584 142.304 67.144C142.304 66.704 142.38 66.32 142.532 65.992C142.692 65.664 142.916 65.412 143.204 65.236C143.492 65.052 143.828 64.96 144.212 64.96ZM144.212 65.716C143.988 65.716 143.796 65.772 143.636 65.884C143.476 65.996 143.356 66.16 143.276 66.376C143.196 66.584 143.156 66.84 143.156 67.144C143.156 67.44 143.196 67.696 143.276 67.912C143.356 68.128 143.476 68.292 143.636 68.404C143.796 68.516 143.988 68.572 144.212 68.572C144.444 68.572 144.636 68.516 144.788 68.404C144.948 68.292 145.068 68.128 145.148 67.912C145.228 67.696 145.268 67.44 145.268 67.144C145.268 66.84 145.228 66.584 145.148 66.376C145.068 66.16 144.948 65.996 144.788 65.884C144.636 65.772 144.444 65.716 144.212 65.716ZM149.708 68.752C150.1 68.752 150.436 68.844 150.716 69.028C151.004 69.204 151.224 69.456 151.376 69.784C151.536 70.112 151.616 70.496 151.616 70.936C151.616 71.376 151.536 71.76 151.376 72.088C151.224 72.416 151.004 72.672 150.716 72.856C150.436 73.032 150.1 73.12 149.708 73.12C149.324 73.12 148.988 73.032 148.7 72.856C148.412 72.672 148.188 72.416 148.028 72.088C147.876 71.76 147.8 71.376 147.8 70.936C147.8 70.496 147.876 70.112 148.028 69.784C148.188 69.456 148.412 69.204 148.7 69.028C148.988 68.844 149.324 68.752 149.708 68.752ZM149.708 69.508C149.484 69.508 149.292 69.564 149.132 69.676C148.972 69.788 148.852 69.952 148.772 70.168C148.692 70.376 148.652 70.632 148.652 70.936C148.652 71.232 148.692 71.488 148.772 71.704C148.852 71.92 148.972 72.084 149.132 72.196C149.292 72.308 149.484 72.364 149.708 72.364C149.94 72.364 150.132 72.308 150.284 72.196C150.444 72.084 150.564 71.92 150.644 71.704C150.724 71.488 150.764 71.232 150.764 70.936C150.764 70.632 150.724 70.376 150.644 70.168C150.564 69.952 150.444 69.788 150.284 69.676C150.132 69.564 149.94 69.508 149.708 69.508Z" fill="black"/>
<path d="M21.632 89.76V99H20.512V89.76H21.632ZM24.3762 99V92H25.3562L25.4542 93.568L25.2722 93.414C25.4216 93.0407 25.6222 92.742 25.8742 92.518C26.1262 92.2847 26.4156 92.1167 26.7422 92.014C27.0782 91.9113 27.4236 91.86 27.7782 91.86C28.2822 91.86 28.7396 91.958 29.1502 92.154C29.5609 92.3407 29.8876 92.63 30.1302 93.022C30.3822 93.414 30.5082 93.9133 30.5082 94.52V99H29.3882V94.912C29.3882 94.1373 29.2202 93.6007 28.8842 93.302C28.5576 92.994 28.1516 92.84 27.6662 92.84C27.3302 92.84 26.9942 92.9193 26.6582 93.078C26.3222 93.2367 26.0422 93.4933 25.8182 93.848C25.6036 94.2027 25.4962 94.6787 25.4962 95.276V99H24.3762ZM34.6005 90.012V97.068C34.6005 97.4133 34.6985 97.67 34.8945 97.838C35.0905 98.006 35.3425 98.09 35.6505 98.09C35.9212 98.09 36.1545 98.0433 36.3505 97.95C36.5465 97.8567 36.7238 97.7307 36.8825 97.572L37.2745 98.51C37.0598 98.706 36.8032 98.86 36.5045 98.972C36.2152 99.084 35.8792 99.14 35.4965 99.14C35.1418 99.14 34.8105 99.0793 34.5025 98.958C34.1945 98.8273 33.9472 98.6267 33.7605 98.356C33.5832 98.076 33.4898 97.712 33.4805 97.264V90.32L34.6005 90.012ZM37.1485 92V92.966H32.0805V92H37.1485ZM41.7397 99.14C41.0771 99.14 40.4844 98.9953 39.9617 98.706C39.4484 98.4167 39.0471 98.0013 38.7577 97.46C38.4684 96.9093 38.3237 96.256 38.3237 95.5C38.3237 94.744 38.4684 94.0953 38.7577 93.554C39.0471 93.0033 39.4437 92.5833 39.9477 92.294C40.4517 92.0047 41.0257 91.86 41.6697 91.86C42.3231 91.86 42.8784 92 43.3357 92.28C43.8024 92.56 44.1571 92.9427 44.3997 93.428C44.6424 93.904 44.7637 94.4407 44.7637 95.038C44.7637 95.1967 44.7591 95.3413 44.7497 95.472C44.7404 95.6027 44.7264 95.7193 44.7077 95.822H39.0517V94.828H44.2177L43.6437 94.94C43.6437 94.268 43.4571 93.75 43.0837 93.386C42.7197 93.022 42.2391 92.84 41.6417 92.84C41.1844 92.84 40.7877 92.9473 40.4517 93.162C40.1251 93.3673 39.8684 93.6707 39.6817 94.072C39.5044 94.464 39.4157 94.94 39.4157 95.5C39.4157 96.0507 39.5091 96.5267 39.6957 96.928C39.8824 97.3293 40.1437 97.6373 40.4797 97.852C40.8251 98.0573 41.2357 98.16 41.7117 98.16C42.2251 98.16 42.6404 98.062 42.9577 97.866C43.2844 97.67 43.5457 97.404 43.7417 97.068L44.6237 97.586C44.4464 97.9033 44.2177 98.1787 43.9377 98.412C43.6671 98.6453 43.3451 98.8273 42.9717 98.958C42.6077 99.0793 42.1971 99.14 41.7397 99.14ZM46.8938 99V92H47.8038L47.9578 93.148C48.1538 92.7187 48.4385 92.3967 48.8118 92.182C49.1945 91.9673 49.6565 91.86 50.1978 91.86C50.3191 91.86 50.4498 91.8693 50.5898 91.888C50.7391 91.9067 50.8651 91.944 50.9678 92L50.7718 93.022C50.6691 92.9847 50.5571 92.9567 50.4358 92.938C50.3145 92.9193 50.1418 92.91 49.9178 92.91C49.6285 92.91 49.3345 92.994 49.0358 93.162C48.7465 93.33 48.5038 93.5867 48.3078 93.932C48.1118 94.268 48.0138 94.6973 48.0138 95.22V99H46.8938ZM52.6086 99V92H53.5886L53.6586 93.092C53.9106 92.6627 54.2373 92.35 54.6386 92.154C55.0493 91.958 55.4693 91.86 55.8986 91.86C56.3933 91.86 56.86 91.972 57.2986 92.196C57.7373 92.42 58.0733 92.7653 58.3066 93.232C58.456 92.9147 58.666 92.658 58.9366 92.462C59.2073 92.2567 59.5013 92.1073 59.8186 92.014C60.1453 91.9113 60.4533 91.86 60.7426 91.86C61.1906 91.86 61.6153 91.9533 62.0166 92.14C62.4273 92.3267 62.7633 92.616 63.0246 93.008C63.286 93.4 63.4166 93.904 63.4166 94.52V99H62.2966V94.632C62.2966 93.9973 62.138 93.54 61.8206 93.26C61.5033 92.98 61.1113 92.84 60.6446 92.84C60.2806 92.84 59.94 92.9287 59.6226 93.106C59.3053 93.2833 59.0486 93.5447 58.8526 93.89C58.666 94.2353 58.5726 94.66 58.5726 95.164V99H57.4526V94.632C57.4526 93.9973 57.294 93.54 56.9766 93.26C56.6593 92.98 56.2673 92.84 55.8006 92.84C55.4926 92.84 55.1753 92.924 54.8486 93.092C54.5313 93.2507 54.2653 93.5073 54.0506 93.862C53.836 94.2167 53.7286 94.6833 53.7286 95.262V99H52.6086ZM68.8784 99.14C68.2157 99.14 67.6231 98.9953 67.1004 98.706C66.5871 98.4167 66.1857 98.0013 65.8964 97.46C65.6071 96.9093 65.4624 96.256 65.4624 95.5C65.4624 94.744 65.6071 94.0953 65.8964 93.554C66.1857 93.0033 66.5824 92.5833 67.0864 92.294C67.5904 92.0047 68.1644 91.86 68.8084 91.86C69.4617 91.86 70.0171 92 70.4744 92.28C70.9411 92.56 71.2957 92.9427 71.5384 93.428C71.7811 93.904 71.9024 94.4407 71.9024 95.038C71.9024 95.1967 71.8977 95.3413 71.8884 95.472C71.8791 95.6027 71.8651 95.7193 71.8464 95.822H66.1904V94.828H71.3564L70.7824 94.94C70.7824 94.268 70.5957 93.75 70.2224 93.386C69.8584 93.022 69.3777 92.84 68.7804 92.84C68.3231 92.84 67.9264 92.9473 67.5904 93.162C67.2637 93.3673 67.0071 93.6707 66.8204 94.072C66.6431 94.464 66.5544 94.94 66.5544 95.5C66.5544 96.0507 66.6477 96.5267 66.8344 96.928C67.0211 97.3293 67.2824 97.6373 67.6184 97.852C67.9637 98.0573 68.3744 98.16 68.8504 98.16C69.3637 98.16 69.7791 98.062 70.0964 97.866C70.4231 97.67 70.6844 97.404 70.8804 97.068L71.7624 97.586C71.5851 97.9033 71.3564 98.1787 71.0764 98.412C70.8057 98.6453 70.4837 98.8273 70.1104 98.958C69.7464 99.0793 69.3357 99.14 68.8784 99.14ZM76.7625 99.14C76.1838 99.14 75.6518 98.9953 75.1665 98.706C74.6811 98.4167 74.2938 98.0013 74.0045 97.46C73.7151 96.9093 73.5705 96.256 73.5705 95.5C73.5705 94.7253 73.7245 94.0673 74.0325 93.526C74.3405 92.9847 74.7465 92.574 75.2505 92.294C75.7545 92.0047 76.2958 91.86 76.8745 91.86C77.4531 91.86 77.9525 92.0093 78.3725 92.308C78.8018 92.6067 79.0865 93.0033 79.2265 93.498L79.0865 93.596V88.78H80.2065V99H79.2265L79.1285 97.306L79.2825 97.222C79.2171 97.6327 79.0585 97.9827 78.8065 98.272C78.5638 98.552 78.2605 98.7667 77.8965 98.916C77.5418 99.0653 77.1638 99.14 76.7625 99.14ZM76.8745 98.16C77.3225 98.16 77.7098 98.048 78.0365 97.824C78.3725 97.6 78.6291 97.2827 78.8065 96.872C78.9931 96.452 79.0865 95.962 79.0865 95.402C79.0865 94.87 78.9931 94.4127 78.8065 94.03C78.6291 93.6473 78.3771 93.3533 78.0505 93.148C77.7331 92.9427 77.3598 92.84 76.9305 92.84C76.2211 92.84 75.6705 93.0827 75.2785 93.568C74.8865 94.0533 74.6905 94.6973 74.6905 95.5C74.6905 96.3027 74.8818 96.9467 75.2645 97.432C75.6471 97.9173 76.1838 98.16 76.8745 98.16ZM83.3698 90.656C83.1178 90.656 82.9125 90.5813 82.7538 90.432C82.6045 90.2733 82.5298 90.068 82.5298 89.816C82.5298 89.564 82.6045 89.3633 82.7538 89.214C82.9125 89.0553 83.1178 88.976 83.3698 88.976C83.6218 88.976 83.8225 89.0553 83.9718 89.214C84.1305 89.3633 84.2098 89.564 84.2098 89.816C84.2098 90.068 84.1305 90.2733 83.9718 90.432C83.8225 90.5813 83.6218 90.656 83.3698 90.656ZM83.9298 92V99H82.8098V92H83.9298ZM90.6166 94.478C90.6166 93.9553 90.4766 93.554 90.1966 93.274C89.9166 92.9847 89.5199 92.84 89.0066 92.84C88.5212 92.84 88.1106 92.9473 87.7746 93.162C87.4386 93.3673 87.1912 93.7033 87.0326 94.17L86.1226 93.61C86.3092 93.0873 86.6546 92.6673 87.1586 92.35C87.6626 92.0233 88.2879 91.86 89.0346 91.86C89.5386 91.86 89.9959 91.9487 90.4066 92.126C90.8172 92.294 91.1392 92.5553 91.3726 92.91C91.6152 93.2553 91.7366 93.7033 91.7366 94.254V97.642C91.7366 97.978 91.9139 98.146 92.2686 98.146C92.4459 98.146 92.6186 98.1227 92.7866 98.076L92.7306 98.958C92.5439 99.0513 92.3012 99.098 92.0026 99.098C91.7319 99.098 91.4892 99.0467 91.2746 98.944C91.0599 98.8413 90.8919 98.6873 90.7706 98.482C90.6492 98.2673 90.5886 98.0013 90.5886 97.684V97.544L90.8686 97.586C90.7566 97.95 90.5652 98.2487 90.2946 98.482C90.0239 98.706 89.7206 98.874 89.3846 98.986C89.0486 99.0887 88.7172 99.14 88.3906 99.14C87.9799 99.14 87.5972 99.07 87.2426 98.93C86.8879 98.79 86.6032 98.58 86.3886 98.3C86.1832 98.0107 86.0806 97.656 86.0806 97.236C86.0806 96.7133 86.2532 96.284 86.5986 95.948C86.9532 95.6027 87.4432 95.3693 88.0686 95.248L90.8406 94.702V95.626L88.5866 96.088C88.1292 96.1813 87.7886 96.312 87.5646 96.48C87.3406 96.648 87.2286 96.8813 87.2286 97.18C87.2286 97.4693 87.3406 97.7073 87.5646 97.894C87.7979 98.0713 88.1246 98.16 88.5446 98.16C88.8152 98.16 89.0719 98.1273 89.3146 98.062C89.5666 97.9873 89.7906 97.88 89.9866 97.74C90.1826 97.5907 90.3366 97.4087 90.4486 97.194C90.5606 96.97 90.6166 96.7087 90.6166 96.41V94.478ZM95.8368 90.012V97.068C95.8368 97.4133 95.9348 97.67 96.1308 97.838C96.3268 98.006 96.5788 98.09 96.8868 98.09C97.1575 98.09 97.3908 98.0433 97.5868 97.95C97.7828 97.8567 97.9601 97.7307 98.1188 97.572L98.5108 98.51C98.2961 98.706 98.0395 98.86 97.7408 98.972C97.4515 99.084 97.1155 99.14 96.7328 99.14C96.3781 99.14 96.0468 99.0793 95.7388 98.958C95.4308 98.8273 95.1835 98.6267 94.9968 98.356C94.8195 98.076 94.7261 97.712 94.7168 97.264V90.32L95.8368 90.012ZM98.3848 92V92.966H93.3168V92H98.3848ZM102.976 99.14C102.313 99.14 101.721 98.9953 101.198 98.706C100.685 98.4167 100.283 98.0013 99.994 97.46C99.7047 96.9093 99.56 96.256 99.56 95.5C99.56 94.744 99.7047 94.0953 99.994 93.554C100.283 93.0033 100.68 92.5833 101.184 92.294C101.688 92.0047 102.262 91.86 102.906 91.86C103.559 91.86 104.115 92 104.572 92.28C105.039 92.56 105.393 92.9427 105.636 93.428C105.879 93.904 106 94.4407 106 95.038C106 95.1967 105.995 95.3413 105.986 95.472C105.977 95.6027 105.963 95.7193 105.944 95.822H100.288V94.828H105.454L104.88 94.94C104.88 94.268 104.693 93.75 104.32 93.386C103.956 93.022 103.475 92.84 102.878 92.84C102.421 92.84 102.024 92.9473 101.688 93.162C101.361 93.3673 101.105 93.6707 100.918 94.072C100.741 94.464 100.652 94.94 100.652 95.5C100.652 96.0507 100.745 96.5267 100.932 96.928C101.119 97.3293 101.38 97.6373 101.716 97.852C102.061 98.0573 102.472 98.16 102.948 98.16C103.461 98.16 103.877 98.062 104.194 97.866C104.521 97.67 104.782 97.404 104.978 97.068L105.86 97.586C105.683 97.9033 105.454 98.1787 105.174 98.412C104.903 98.6453 104.581 98.8273 104.208 98.958C103.844 99.0793 103.433 99.14 102.976 99.14Z" fill="black"/>
<path d="M19 119C19 116.791 20.7909 115 23 115H41V123H23C20.7909 123 19 121.209 19 119Z" fill="#F27830"/>
<path d="M41 115H115C117.209 115 119 116.791 119 119C119 121.209 117.209 123 115 123H41V115Z" fill="#D9D9D9"/>
<path d="M129.888 123V122.22C130.68 121.636 131.34 121.124 131.868 120.684C132.404 120.244 132.832 119.844 133.152 119.484C133.472 119.124 133.7 118.784 133.836 118.464C133.972 118.136 134.04 117.796 134.04 117.444C134.04 116.972 133.888 116.592 133.584 116.304C133.288 116.008 132.88 115.86 132.36 115.86C131.816 115.86 131.38 116.04 131.052 116.4C130.724 116.752 130.532 117.224 130.476 117.816L129.636 117.312C129.708 116.848 129.856 116.44 130.08 116.088C130.312 115.736 130.62 115.46 131.004 115.26C131.396 115.06 131.86 114.96 132.396 114.96C132.804 114.96 133.168 115.02 133.488 115.14C133.816 115.26 134.096 115.432 134.328 115.656C134.56 115.872 134.736 116.132 134.856 116.436C134.984 116.74 135.048 117.076 135.048 117.444C135.048 117.94 134.928 118.428 134.688 118.908C134.448 119.38 134.052 119.876 133.5 120.396C132.948 120.916 132.2 121.492 131.256 122.124V122.136C131.344 122.128 131.464 122.124 131.616 122.124C131.776 122.116 131.932 122.112 132.084 122.112C132.244 122.104 132.364 122.1 132.444 122.1H135.216V123H129.888ZM136.884 123V122.22C137.676 121.636 138.336 121.124 138.864 120.684C139.4 120.244 139.828 119.844 140.148 119.484C140.468 119.124 140.696 118.784 140.832 118.464C140.968 118.136 141.036 117.796 141.036 117.444C141.036 116.972 140.884 116.592 140.58 116.304C140.284 116.008 139.876 115.86 139.356 115.86C138.812 115.86 138.376 116.04 138.048 116.4C137.72 116.752 137.528 117.224 137.472 117.816L136.632 117.312C136.704 116.848 136.852 116.44 137.076 116.088C137.308 115.736 137.616 115.46 138 115.26C138.392 115.06 138.856 114.96 139.392 114.96C139.8 114.96 140.164 115.02 140.484 115.14C140.812 115.26 141.092 115.432 141.324 115.656C141.556 115.872 141.732 116.132 141.852 116.436C141.98 116.74 142.044 117.076 142.044 117.444C142.044 117.94 141.924 118.428 141.684 118.908C141.444 119.38 141.048 119.876 140.496 120.396C139.944 120.916 139.196 121.492 138.252 122.124V122.136C138.34 122.128 138.46 122.124 138.612 122.124C138.772 122.116 138.928 122.112 139.08 122.112C139.24 122.104 139.36 122.1 139.44 122.1H142.212V123H136.884ZM145.152 123L150.192 115.08H151.104L146.064 123H145.152ZM145.38 114.96C145.772 114.96 146.108 115.052 146.388 115.236C146.676 115.412 146.896 115.664 147.048 115.992C147.208 116.32 147.288 116.704 147.288 117.144C147.288 117.584 147.208 117.968 147.048 118.296C146.896 118.624 146.676 118.88 146.388 119.064C146.108 119.24 145.772 119.328 145.38 119.328C144.996 119.328 144.66 119.24 144.372 119.064C144.084 118.88 143.86 118.624 143.7 118.296C143.548 117.968 143.472 117.584 143.472 117.144C143.472 116.704 143.548 116.32 143.7 115.992C143.86 115.664 144.084 115.412 144.372 115.236C144.66 115.052 144.996 114.96 145.38 114.96ZM145.38 115.716C145.156 115.716 144.964 115.772 144.804 115.884C144.644 115.996 144.524 116.16 144.444 116.376C144.364 116.584 144.324 116.84 144.324 117.144C144.324 117.44 144.364 117.696 144.444 117.912C144.524 118.128 144.644 118.292 144.804 118.404C144.964 118.516 145.156 118.572 145.38 118.572C145.612 118.572 145.804 118.516 145.956 118.404C146.116 118.292 146.236 118.128 146.316 117.912C146.396 117.696 146.436 117.44 146.436 117.144C146.436 116.84 146.396 116.584 146.316 116.376C146.236 116.16 146.116 115.996 145.956 115.884C145.804 115.772 145.612 115.716 145.38 115.716ZM150.876 118.752C151.268 118.752 151.604 118.844 151.884 119.028C152.172 119.204 152.392 119.456 152.544 119.784C152.704 120.112 152.784 120.496 152.784 120.936C152.784 121.376 152.704 121.76 152.544 122.088C152.392 122.416 152.172 122.672 151.884 122.856C151.604 123.032 151.268 123.12 150.876 123.12C150.492 123.12 150.156 123.032 149.868 122.856C149.58 122.672 149.356 122.416 149.196 122.088C149.044 121.76 148.968 121.376 148.968 120.936C148.968 120.496 149.044 120.112 149.196 119.784C149.356 119.456 149.58 119.204 149.868 119.028C150.156 118.844 150.492 118.752 150.876 118.752ZM150.876 119.508C150.652 119.508 150.46 119.564 150.3 119.676C150.14 119.788 150.02 119.952 149.94 120.168C149.86 120.376 149.82 120.632 149.82 120.936C149.82 121.232 149.86 121.488 149.94 121.704C150.02 121.92 150.14 122.084 150.3 122.196C150.46 122.308 150.652 122.364 150.876 122.364C151.108 122.364 151.3 122.308 151.452 122.196C151.612 122.084 151.732 121.92 151.812 121.704C151.892 121.488 151.932 121.232 151.932 120.936C151.932 120.632 151.892 120.376 151.812 120.168C151.732 119.952 151.612 119.788 151.452 119.676C151.3 119.564 151.108 119.508 150.876 119.508Z" fill="black"/>
<path d="M30.876 149H29.686L28.706 146.438H24.52L23.54 149H22.364L25.962 139.76H27.292L30.876 149ZM24.926 145.388H28.3L26.606 140.838L24.926 145.388ZM35.1511 149.14C34.5725 149.14 34.0405 148.995 33.5551 148.706C33.0698 148.417 32.6825 148.001 32.3931 147.46C32.1038 146.909 31.9591 146.256 31.9591 145.5C31.9591 144.725 32.1131 144.067 32.4211 143.526C32.7291 142.985 33.1351 142.574 33.6391 142.294C34.1431 142.005 34.6845 141.86 35.2631 141.86C35.8418 141.86 36.3411 142.009 36.7611 142.308C37.1905 142.607 37.4751 143.003 37.6151 143.498L37.4751 143.596V138.78H38.5951V149H37.6151L37.5171 147.306L37.6711 147.222C37.6058 147.633 37.4471 147.983 37.1951 148.272C36.9525 148.552 36.6491 148.767 36.2851 148.916C35.9305 149.065 35.5525 149.14 35.1511 149.14ZM35.2631 148.16C35.7111 148.16 36.0985 148.048 36.4251 147.824C36.7611 147.6 37.0178 147.283 37.1951 146.872C37.3818 146.452 37.4751 145.962 37.4751 145.402C37.4751 144.87 37.3818 144.413 37.1951 144.03C37.0178 143.647 36.7658 143.353 36.4391 143.148C36.1218 142.943 35.7485 142.84 35.3191 142.84C34.6098 142.84 34.0591 143.083 33.6671 143.568C33.2751 144.053 33.0791 144.697 33.0791 145.5C33.0791 146.303 33.2705 146.947 33.6531 147.432C34.0358 147.917 34.5725 148.16 35.2631 148.16ZM45.8325 142H47.0085L44.0965 149H42.9765L40.0645 142H41.3385L43.5505 147.866L45.8325 142ZM52.3822 144.478C52.3822 143.955 52.2422 143.554 51.9622 143.274C51.6822 142.985 51.2855 142.84 50.7722 142.84C50.2869 142.84 49.8762 142.947 49.5402 143.162C49.2042 143.367 48.9569 143.703 48.7982 144.17L47.8882 143.61C48.0749 143.087 48.4202 142.667 48.9242 142.35C49.4282 142.023 50.0535 141.86 50.8002 141.86C51.3042 141.86 51.7615 141.949 52.1722 142.126C52.5829 142.294 52.9049 142.555 53.1382 142.91C53.3809 143.255 53.5022 143.703 53.5022 144.254V147.642C53.5022 147.978 53.6795 148.146 54.0342 148.146C54.2115 148.146 54.3842 148.123 54.5522 148.076L54.4962 148.958C54.3095 149.051 54.0669 149.098 53.7682 149.098C53.4975 149.098 53.2549 149.047 53.0402 148.944C52.8255 148.841 52.6575 148.687 52.5362 148.482C52.4149 148.267 52.3542 148.001 52.3542 147.684V147.544L52.6342 147.586C52.5222 147.95 52.3309 148.249 52.0602 148.482C51.7895 148.706 51.4862 148.874 51.1502 148.986C50.8142 149.089 50.4829 149.14 50.1562 149.14C49.7455 149.14 49.3629 149.07 49.0082 148.93C48.6535 148.79 48.3689 148.58 48.1542 148.3C47.9489 148.011 47.8462 147.656 47.8462 147.236C47.8462 146.713 48.0189 146.284 48.3642 145.948C48.7189 145.603 49.2089 145.369 49.8342 145.248L52.6062 144.702V145.626L50.3522 146.088C49.8949 146.181 49.5542 146.312 49.3302 146.48C49.1062 146.648 48.9942 146.881 48.9942 147.18C48.9942 147.469 49.1062 147.707 49.3302 147.894C49.5635 148.071 49.8902 148.16 50.3102 148.16C50.5809 148.16 50.8375 148.127 51.0802 148.062C51.3322 147.987 51.5562 147.88 51.7522 147.74C51.9482 147.591 52.1022 147.409 52.2142 147.194C52.3262 146.97 52.3822 146.709 52.3822 146.41V144.478ZM59.1219 141.86C59.6072 141.86 60.0319 141.935 60.3959 142.084C60.7692 142.233 61.0912 142.448 61.3619 142.728C61.6325 143.008 61.8519 143.339 62.0199 143.722L60.9559 144.226C60.8065 143.778 60.5779 143.437 60.2699 143.204C59.9712 142.961 59.5792 142.84 59.0939 142.84C58.6272 142.84 58.2259 142.947 57.8899 143.162C57.5539 143.367 57.2972 143.671 57.1199 144.072C56.9425 144.464 56.8539 144.94 56.8539 145.5C56.8539 146.051 56.9425 146.527 57.1199 146.928C57.2972 147.329 57.5539 147.637 57.8899 147.852C58.2259 148.057 58.6272 148.16 59.0939 148.16C59.4579 148.16 59.7705 148.104 60.0319 147.992C60.3025 147.88 60.5219 147.717 60.6899 147.502C60.8672 147.287 60.9885 147.026 61.0539 146.718L62.0899 147.082C61.9312 147.511 61.7119 147.88 61.4319 148.188C61.1612 148.496 60.8299 148.734 60.4379 148.902C60.0552 149.061 59.6165 149.14 59.1219 149.14C58.4685 149.14 57.8852 148.995 57.3719 148.706C56.8585 148.417 56.4572 148.001 56.1679 147.46C55.8785 146.909 55.7339 146.256 55.7339 145.5C55.7339 144.744 55.8785 144.095 56.1679 143.554C56.4572 143.003 56.8585 142.583 57.3719 142.294C57.8852 142.005 58.4685 141.86 59.1219 141.86ZM66.9839 149.14C66.3212 149.14 65.7285 148.995 65.2059 148.706C64.6925 148.417 64.2912 148.001 64.0019 147.46C63.7125 146.909 63.5679 146.256 63.5679 145.5C63.5679 144.744 63.7125 144.095 64.0019 143.554C64.2912 143.003 64.6879 142.583 65.1919 142.294C65.6959 142.005 66.2699 141.86 66.9139 141.86C67.5672 141.86 68.1225 142 68.5799 142.28C69.0465 142.56 69.4012 142.943 69.6439 143.428C69.8865 143.904 70.0079 144.441 70.0079 145.038C70.0079 145.197 70.0032 145.341 69.9939 145.472C69.9845 145.603 69.9705 145.719 69.9519 145.822H64.2959V144.828H69.4619L68.8879 144.94C68.8879 144.268 68.7012 143.75 68.3279 143.386C67.9639 143.022 67.4832 142.84 66.8859 142.84C66.4285 142.84 66.0319 142.947 65.6959 143.162C65.3692 143.367 65.1125 143.671 64.9259 144.072C64.7485 144.464 64.6599 144.94 64.6599 145.5C64.6599 146.051 64.7532 146.527 64.9399 146.928C65.1265 147.329 65.3879 147.637 65.7239 147.852C66.0692 148.057 66.4799 148.16 66.9559 148.16C67.4692 148.16 67.8845 148.062 68.2019 147.866C68.5285 147.67 68.7899 147.404 68.9859 147.068L69.8679 147.586C69.6905 147.903 69.4619 148.179 69.1819 148.412C68.9112 148.645 68.5892 148.827 68.2159 148.958C67.8519 149.079 67.4412 149.14 66.9839 149.14ZM74.8679 149.14C74.2893 149.14 73.7573 148.995 73.2719 148.706C72.7866 148.417 72.3993 148.001 72.1099 147.46C71.8206 146.909 71.6759 146.256 71.6759 145.5C71.6759 144.725 71.8299 144.067 72.1379 143.526C72.4459 142.985 72.8519 142.574 73.3559 142.294C73.8599 142.005 74.4013 141.86 74.9799 141.86C75.5586 141.86 76.0579 142.009 76.4779 142.308C76.9073 142.607 77.1919 143.003 77.3319 143.498L77.1919 143.596V138.78H78.3119V149H77.3319L77.2339 147.306L77.3879 147.222C77.3226 147.633 77.1639 147.983 76.9119 148.272C76.6693 148.552 76.3659 148.767 76.0019 148.916C75.6473 149.065 75.2693 149.14 74.8679 149.14ZM74.9799 148.16C75.4279 148.16 75.8153 148.048 76.1419 147.824C76.4779 147.6 76.7346 147.283 76.9119 146.872C77.0986 146.452 77.1919 145.962 77.1919 145.402C77.1919 144.87 77.0986 144.413 76.9119 144.03C76.7346 143.647 76.4826 143.353 76.1559 143.148C75.8386 142.943 75.4653 142.84 75.0359 142.84C74.3266 142.84 73.7759 143.083 73.3839 143.568C72.9919 144.053 72.7959 144.697 72.7959 145.5C72.7959 146.303 72.9873 146.947 73.3699 147.432C73.7526 147.917 74.2893 148.16 74.9799 148.16Z" fill="black"/>
<path d="M22 166C22 165.448 22.4477 165 23 165V173C22.4477 173 22 172.552 22 172V166Z" fill="#F27830"/>
<path d="M23 165H119C121.209 165 123 166.791 123 169C123 171.209 121.209 173 119 173H23V165Z" fill="#D9D9D9"/>
<path d="M136.732 173.12C135.836 173.12 135.12 172.772 134.584 172.076C134.048 171.38 133.78 170.368 133.78 169.04C133.78 167.712 134.048 166.7 134.584 166.004C135.12 165.308 135.836 164.96 136.732 164.96C137.636 164.96 138.352 165.308 138.88 166.004C139.416 166.7 139.684 167.712 139.684 169.04C139.684 170.368 139.416 171.38 138.88 172.076C138.352 172.772 137.636 173.12 136.732 173.12ZM136.732 172.256C137.156 172.256 137.512 172.136 137.8 171.896C138.096 171.648 138.316 171.284 138.46 170.804C138.612 170.324 138.688 169.736 138.688 169.04C138.688 168.344 138.612 167.756 138.46 167.276C138.316 166.796 138.096 166.436 137.8 166.196C137.512 165.948 137.156 165.824 136.732 165.824C136.308 165.824 135.948 165.948 135.652 166.196C135.364 166.436 135.144 166.796 134.992 167.276C134.848 167.756 134.776 168.344 134.776 169.04C134.776 169.736 134.848 170.324 134.992 170.804C135.144 171.284 135.364 171.648 135.652 171.896C135.948 172.136 136.308 172.256 136.732 172.256ZM142.625 173L147.665 165.08H148.577L143.537 173H142.625ZM142.853 164.96C143.245 164.96 143.581 165.052 143.861 165.236C144.149 165.412 144.369 165.664 144.521 165.992C144.681 166.32 144.761 166.704 144.761 167.144C144.761 167.584 144.681 167.968 144.521 168.296C144.369 168.624 144.149 168.88 143.861 169.064C143.581 169.24 143.245 169.328 142.853 169.328C142.469 169.328 142.133 169.24 141.845 169.064C141.557 168.88 141.333 168.624 141.173 168.296C141.021 167.968 140.945 167.584 140.945 167.144C140.945 166.704 141.021 166.32 141.173 165.992C141.333 165.664 141.557 165.412 141.845 165.236C142.133 165.052 142.469 164.96 142.853 164.96ZM142.853 165.716C142.629 165.716 142.437 165.772 142.277 165.884C142.117 165.996 141.997 166.16 141.917 166.376C141.837 166.584 141.797 166.84 141.797 167.144C141.797 167.44 141.837 167.696 141.917 167.912C141.997 168.128 142.117 168.292 142.277 168.404C142.437 168.516 142.629 168.572 142.853 168.572C143.085 168.572 143.277 168.516 143.429 168.404C143.589 168.292 143.709 168.128 143.789 167.912C143.869 167.696 143.909 167.44 143.909 167.144C143.909 166.84 143.869 166.584 143.789 166.376C143.709 166.16 143.589 165.996 143.429 165.884C143.277 165.772 143.085 165.716 142.853 165.716ZM148.349 168.752C148.741 168.752 149.077 168.844 149.357 169.028C149.645 169.204 149.865 169.456 150.017 169.784C150.177 170.112 150.257 170.496 150.257 170.936C150.257 171.376 150.177 171.76 150.017 172.088C149.865 172.416 149.645 172.672 149.357 172.856C149.077 173.032 148.741 173.12 148.349 173.12C147.965 173.12 147.629 173.032 147.341 172.856C147.053 172.672 146.829 172.416 146.669 172.088C146.517 171.76 146.441 171.376 146.441 170.936C146.441 170.496 146.517 170.112 146.669 169.784C146.829 169.456 147.053 169.204 147.341 169.028C147.629 168.844 147.965 168.752 148.349 168.752ZM148.349 169.508C148.125 169.508 147.933 169.564 147.773 169.676C147.613 169.788 147.493 169.952 147.413 170.168C147.333 170.376 147.293 170.632 147.293 170.936C147.293 171.232 147.333 171.488 147.413 171.704C147.493 171.92 147.613 172.084 147.773 172.196C147.933 172.308 148.125 172.364 148.349 172.364C148.581 172.364 148.773 172.308 148.925 172.196C149.085 172.084 149.205 171.92 149.285 171.704C149.365 171.488 149.405 171.232 149.405 170.936C149.405 170.632 149.365 170.376 149.285 170.168C149.205 169.952 149.085 169.788 148.925 169.676C148.773 169.564 148.581 169.508 148.349 169.508Z" fill="black"/>
<path d="M30.96 196.634C30.764 197.157 30.484 197.609 30.12 197.992C29.756 198.365 29.3267 198.65 28.832 198.846C28.3467 199.042 27.8147 199.14 27.236 199.14C26.3587 199.14 25.598 198.949 24.954 198.566C24.3193 198.174 23.8247 197.623 23.47 196.914C23.1247 196.205 22.952 195.36 22.952 194.38C22.952 193.4 23.1247 192.555 23.47 191.846C23.8247 191.137 24.3193 190.591 24.954 190.208C25.598 189.816 26.3493 189.62 27.208 189.62C27.8053 189.62 28.3373 189.704 28.804 189.872C29.2707 190.031 29.6673 190.273 29.994 190.6C30.33 190.917 30.596 191.309 30.792 191.776L29.686 192.294C29.4807 191.762 29.182 191.361 28.79 191.09C28.4073 190.81 27.908 190.67 27.292 190.67C26.6667 190.67 26.116 190.819 25.64 191.118C25.164 191.407 24.7907 191.827 24.52 192.378C24.2587 192.929 24.128 193.596 24.128 194.38C24.128 195.155 24.254 195.822 24.506 196.382C24.758 196.933 25.1173 197.357 25.584 197.656C26.0507 197.945 26.6013 198.09 27.236 198.09C27.852 198.09 28.3887 197.936 28.846 197.628C29.3033 197.311 29.6347 196.839 29.84 196.214L30.96 196.634ZM32.8997 199V188.78H34.0197V193.05C34.2623 192.63 34.5843 192.327 34.9857 192.14C35.387 191.953 35.8257 191.86 36.3017 191.86C36.8057 191.86 37.263 191.958 37.6737 192.154C38.0843 192.341 38.411 192.63 38.6537 193.022C38.9057 193.414 39.0317 193.913 39.0317 194.52V199H37.9117V194.912C37.9117 194.137 37.7437 193.601 37.4077 193.302C37.081 192.994 36.675 192.84 36.1897 192.84C35.8537 192.84 35.5177 192.919 35.1817 193.078C34.8457 193.237 34.5657 193.498 34.3417 193.862C34.127 194.217 34.0197 194.693 34.0197 195.29V199H32.8997ZM44.4936 199.14C43.831 199.14 43.2383 198.995 42.7156 198.706C42.2023 198.417 41.801 198.001 41.5116 197.46C41.2223 196.909 41.0776 196.256 41.0776 195.5C41.0776 194.744 41.2223 194.095 41.5116 193.554C41.801 193.003 42.1976 192.583 42.7016 192.294C43.2056 192.005 43.7796 191.86 44.4236 191.86C45.077 191.86 45.6323 192 46.0896 192.28C46.5563 192.56 46.911 192.943 47.1536 193.428C47.3963 193.904 47.5176 194.441 47.5176 195.038C47.5176 195.197 47.513 195.341 47.5036 195.472C47.4943 195.603 47.4803 195.719 47.4616 195.822H41.8056V194.828H46.9716L46.3976 194.94C46.3976 194.268 46.211 193.75 45.8376 193.386C45.4736 193.022 44.993 192.84 44.3956 192.84C43.9383 192.84 43.5416 192.947 43.2056 193.162C42.879 193.367 42.6223 193.671 42.4356 194.072C42.2583 194.464 42.1696 194.94 42.1696 195.5C42.1696 196.051 42.263 196.527 42.4496 196.928C42.6363 197.329 42.8976 197.637 43.2336 197.852C43.579 198.057 43.9896 198.16 44.4656 198.16C44.979 198.16 45.3943 198.062 45.7116 197.866C46.0383 197.67 46.2996 197.404 46.4956 197.068L47.3776 197.586C47.2003 197.903 46.9716 198.179 46.6916 198.412C46.421 198.645 46.099 198.827 45.7256 198.958C45.3616 199.079 44.951 199.14 44.4936 199.14ZM52.4213 188.71C52.664 188.71 52.8927 188.738 53.1073 188.794C53.322 188.85 53.49 188.929 53.6113 189.032L53.3173 189.942C53.2053 189.867 53.084 189.816 52.9533 189.788C52.8227 189.751 52.678 189.732 52.5193 189.732C52.118 189.732 51.8053 189.83 51.5813 190.026C51.3573 190.213 51.2453 190.516 51.2453 190.936V192V192.364V199H50.1253V190.824C50.1253 190.516 50.172 190.231 50.2653 189.97C50.3587 189.709 50.4987 189.485 50.6853 189.298C50.8813 189.111 51.124 188.967 51.4133 188.864C51.7027 188.761 52.0387 188.71 52.4213 188.71ZM53.5833 192V192.966H48.7253V192H53.5833Z" fill="black"/>
<path d="M22 216C22 215.448 22.4477 215 23 215V223C22.4477 223 22 222.552 22 222V216Z" fill="#F27830"/>
<path d="M23 215H119C121.209 215 123 216.791 123 219C123 221.209 121.209 223 119 223H23V215Z" fill="#D9D9D9"/>
<path d="M136.732 223.12C135.836 223.12 135.12 222.772 134.584 222.076C134.048 221.38 133.78 220.368 133.78 219.04C133.78 217.712 134.048 216.7 134.584 216.004C135.12 215.308 135.836 214.96 136.732 214.96C137.636 214.96 138.352 215.308 138.88 216.004C139.416 216.7 139.684 217.712 139.684 219.04C139.684 220.368 139.416 221.38 138.88 222.076C138.352 222.772 137.636 223.12 136.732 223.12ZM136.732 222.256C137.156 222.256 137.512 222.136 137.8 221.896C138.096 221.648 138.316 221.284 138.46 220.804C138.612 220.324 138.688 219.736 138.688 219.04C138.688 218.344 138.612 217.756 138.46 217.276C138.316 216.796 138.096 216.436 137.8 216.196C137.512 215.948 137.156 215.824 136.732 215.824C136.308 215.824 135.948 215.948 135.652 216.196C135.364 216.436 135.144 216.796 134.992 217.276C134.848 217.756 134.776 218.344 134.776 219.04C134.776 219.736 134.848 220.324 134.992 220.804C135.144 221.284 135.364 221.648 135.652 221.896C135.948 222.136 136.308 222.256 136.732 222.256ZM142.625 223L147.665 215.08H148.577L143.537 223H142.625ZM142.853 214.96C143.245 214.96 143.581 215.052 143.861 215.236C144.149 215.412 144.369 215.664 144.521 215.992C144.681 216.32 144.761 216.704 144.761 217.144C144.761 217.584 144.681 217.968 144.521 218.296C144.369 218.624 144.149 218.88 143.861 219.064C143.581 219.24 143.245 219.328 142.853 219.328C142.469 219.328 142.133 219.24 141.845 219.064C141.557 218.88 141.333 218.624 141.173 218.296C141.021 217.968 140.945 217.584 140.945 217.144C140.945 216.704 141.021 216.32 141.173 215.992C141.333 215.664 141.557 215.412 141.845 215.236C142.133 215.052 142.469 214.96 142.853 214.96ZM142.853 215.716C142.629 215.716 142.437 215.772 142.277 215.884C142.117 215.996 141.997 216.16 141.917 216.376C141.837 216.584 141.797 216.84 141.797 217.144C141.797 217.44 141.837 217.696 141.917 217.912C141.997 218.128 142.117 218.292 142.277 218.404C142.437 218.516 142.629 218.572 142.853 218.572C143.085 218.572 143.277 218.516 143.429 218.404C143.589 218.292 143.709 218.128 143.789 217.912C143.869 217.696 143.909 217.44 143.909 217.144C143.909 216.84 143.869 216.584 143.789 216.376C143.709 216.16 143.589 215.996 143.429 215.884C143.277 215.772 143.085 215.716 142.853 215.716ZM148.349 218.752C148.741 218.752 149.077 218.844 149.357 219.028C149.645 219.204 149.865 219.456 150.017 219.784C150.177 220.112 150.257 220.496 150.257 220.936C150.257 221.376 150.177 221.76 150.017 222.088C149.865 222.416 149.645 222.672 149.357 222.856C149.077 223.032 148.741 223.12 148.349 223.12C147.965 223.12 147.629 223.032 147.341 222.856C147.053 222.672 146.829 222.416 146.669 222.088C146.517 221.76 146.441 221.376 146.441 220.936C146.441 220.496 146.517 220.112 146.669 219.784C146.829 219.456 147.053 219.204 147.341 219.028C147.629 218.844 147.965 218.752 148.349 218.752ZM148.349 219.508C148.125 219.508 147.933 219.564 147.773 219.676C147.613 219.788 147.493 219.952 147.413 220.168C147.333 220.376 147.293 220.632 147.293 220.936C147.293 221.232 147.333 221.488 147.413 221.704C147.493 221.92 147.613 222.084 147.773 222.196C147.933 222.308 148.125 222.364 148.349 222.364C148.581 222.364 148.773 222.308 148.925 222.196C149.085 222.084 149.205 221.92 149.285 221.704C149.365 221.488 149.405 221.232 149.405 220.936C149.405 220.632 149.365 220.376 149.285 220.168C149.205 219.952 149.085 219.788 148.925 219.676C148.773 219.564 148.581 219.508 148.349 219.508Z" fill="black"/>
</svg>
