<svg width="16" height="15" viewBox="0 0 16 15" fill="none" xmlns="http://www.w3.org/2000/svg">
<g clip-path="url(#clip0_130_496)">
<path d="M8 1.25C11.4519 1.25 14.25 4.04813 14.25 7.5C14.2513 9.14092 13.6072 10.7165 12.4568 11.8867C11.3064 13.0568 9.74197 13.7275 8.10126 13.7541C6.46056 13.7807 4.87521 13.161 3.6875 12.0288C2.49979 10.8965 1.80499 9.3426 1.75313 7.7025L1.75 7.5L1.7525 7.325C1.845 3.95438 4.60625 1.25 8 1.25ZM8.00625 9.375L7.92688 9.37938C7.77497 9.39744 7.63496 9.4706 7.53338 9.58498C7.4318 9.69936 7.3757 9.84702 7.3757 10C7.3757 10.153 7.4318 10.3006 7.53338 10.415C7.63496 10.5294 7.77497 10.6026 7.92688 10.6206L8 10.625L8.07937 10.6206C8.23128 10.6026 8.37128 10.5294 8.47287 10.415C8.57445 10.3006 8.63055 10.153 8.63055 10C8.63055 9.84702 8.57445 9.69936 8.47287 9.58498C8.37128 9.4706 8.23128 9.39744 8.07937 9.37938L8.00625 9.375ZM8 4.375C7.84692 4.37502 7.69916 4.43122 7.58477 4.53295C7.47037 4.63467 7.39729 4.77484 7.37937 4.92687L7.375 5V7.5L7.37937 7.57312C7.39744 7.72503 7.4706 7.86504 7.58498 7.96662C7.69936 8.0682 7.84702 8.1243 8 8.1243C8.15298 8.1243 8.30064 8.0682 8.41502 7.96662C8.5294 7.86504 8.60256 7.72503 8.62063 7.57312L8.625 7.5V5L8.62063 4.92687C8.60271 4.77484 8.52963 4.63467 8.41523 4.53295C8.30084 4.43122 8.15308 4.37502 8 4.375Z" fill="#F27830"/>
</g>
<defs>
<clipPath id="clip0_130_496">
<rect width="15" height="15" fill="white" transform="translate(0.5)"/>
</clipPath>
</defs>
</svg>
