<svg width="24" height="25" viewBox="0 0 24 25" fill="none" xmlns="http://www.w3.org/2000/svg">
<g clip-path="url(#clip0_108_221)">
<path d="M4 6.5C4 5.96957 4.21071 5.46086 4.58579 5.08579C4.96086 4.71071 5.46957 4.5 6 4.5H18C18.5304 4.5 19.0391 4.71071 19.4142 5.08579C19.7893 5.46086 20 5.96957 20 6.5V8.5C20 9.03043 19.7893 9.53914 19.4142 9.91421C19.0391 10.2893 18.5304 10.5 18 10.5H6C5.46957 10.5 4.96086 10.2893 4.58579 9.91421C4.21071 9.53914 4 9.03043 4 8.5V6.5Z" stroke="black" stroke-width="2" stroke-linecap="round" stroke-linejoin="round"/>
<path d="M4 16.5C4 15.9696 4.21071 15.4609 4.58579 15.0858C4.96086 14.7107 5.46957 14.5 6 14.5H18C18.5304 14.5 19.0391 14.7107 19.4142 15.0858C19.7893 15.4609 20 15.9696 20 16.5V18.5C20 19.0304 19.7893 19.5391 19.4142 19.9142C19.0391 20.2893 18.5304 20.5 18 20.5H6C5.46957 20.5 4.96086 20.2893 4.58579 19.9142C4.21071 19.5391 4 19.0304 4 18.5V16.5Z" stroke="black" stroke-width="2" stroke-linecap="round" stroke-linejoin="round"/>
</g>
<defs>
<clipPath id="clip0_108_221">
<rect width="24" height="24" fill="white" transform="translate(0 0.5)"/>
</clipPath>
</defs>
</svg>
