<svg width="24" height="24" viewBox="0 0 24 24" fill="none" xmlns="http://www.w3.org/2000/svg">
<g clip-path="url(#clip0_97_1667)">
<path d="M10.5849 10.587C10.2099 10.9621 9.9993 11.4709 9.99939 12.0014C9.99948 12.5318 10.2103 13.0405 10.5854 13.4155C10.9606 13.7905 11.4693 14.0011 11.9998 14.001C12.5302 14.001 13.0389 13.7901 13.4139 13.415" stroke="black" stroke-width="2" stroke-linecap="round" stroke-linejoin="round"/>
<path d="M16.681 16.673C15.2782 17.5507 13.6547 18.0109 12 18C8.4 18 5.4 16 3 12C4.272 9.88 5.712 8.322 7.32 7.326M10.18 6.18C10.779 6.05873 11.3888 5.99842 12 6C15.6 6 18.6 8 21 12C20.334 13.11 19.621 14.067 18.862 14.87" stroke="black" stroke-width="2" stroke-linecap="round" stroke-linejoin="round"/>
<path d="M3 3L21 21" stroke="black" stroke-width="2" stroke-linecap="round" stroke-linejoin="round"/>
</g>
<defs>
<clipPath id="clip0_97_1667">
<rect width="24" height="24" fill="white"/>
</clipPath>
</defs>
</svg>
