<svg width="30" height="31" viewBox="0 0 30 31" fill="none" xmlns="http://www.w3.org/2000/svg">
<g clip-path="url(#clip0_479_718)">
<path d="M15 8C15 8.66304 15.2634 9.29893 15.7322 9.76777C16.2011 10.2366 16.837 10.5 17.5 10.5C18.163 10.5 18.7989 10.2366 19.2678 9.76777C19.7366 9.29893 20 8.66304 20 8C20 7.33696 19.7366 6.70107 19.2678 6.23223C18.7989 5.76339 18.163 5.5 17.5 5.5C16.837 5.5 16.2011 5.76339 15.7322 6.23223C15.2634 6.70107 15 7.33696 15 8Z" stroke="#F27830" stroke-width="2" stroke-linecap="round" stroke-linejoin="round"/>
<path d="M5 8H15" stroke="#F27830" stroke-width="2" stroke-linecap="round" stroke-linejoin="round"/>
<path d="M20 8H25" stroke="#F27830" stroke-width="2" stroke-linecap="round" stroke-linejoin="round"/>
<path d="M7.5 15.5C7.5 16.163 7.76339 16.7989 8.23223 17.2678C8.70107 17.7366 9.33696 18 10 18C10.663 18 11.2989 17.7366 11.7678 17.2678C12.2366 16.7989 12.5 16.163 12.5 15.5C12.5 14.837 12.2366 14.2011 11.7678 13.7322C11.2989 13.2634 10.663 13 10 13C9.33696 13 8.70107 13.2634 8.23223 13.7322C7.76339 14.2011 7.5 14.837 7.5 15.5Z" stroke="#F27830" stroke-width="2" stroke-linecap="round" stroke-linejoin="round"/>
<path d="M5 15.5H7.5" stroke="#F27830" stroke-width="2" stroke-linecap="round" stroke-linejoin="round"/>
<path d="M12.5 15.5H25" stroke="#F27830" stroke-width="2" stroke-linecap="round" stroke-linejoin="round"/>
<path d="M18.75 23C18.75 23.663 19.0134 24.2989 19.4822 24.7678C19.9511 25.2366 20.587 25.5 21.25 25.5C21.913 25.5 22.5489 25.2366 23.0178 24.7678C23.4866 24.2989 23.75 23.663 23.75 23C23.75 22.337 23.4866 21.7011 23.0178 21.2322C22.5489 20.7634 21.913 20.5 21.25 20.5C20.587 20.5 19.9511 20.7634 19.4822 21.2322C19.0134 21.7011 18.75 22.337 18.75 23Z" stroke="#F27830" stroke-width="2" stroke-linecap="round" stroke-linejoin="round"/>
<path d="M5 23H18.75" stroke="#F27830" stroke-width="2" stroke-linecap="round" stroke-linejoin="round"/>
<path d="M23.75 23H25" stroke="#F27830" stroke-width="2" stroke-linecap="round" stroke-linejoin="round"/>
</g>
<defs>
<clipPath id="clip0_479_718">
<rect width="30" height="30" fill="white" transform="translate(0 0.5)"/>
</clipPath>
</defs>
</svg>
