<svg width="208" height="208" viewBox="0 0 208 208" fill="none" xmlns="http://www.w3.org/2000/svg">
<g filter="url(#filter0_d_481_1028)">
<g clip-path="url(#clip0_481_1028)">
<rect x="4" width="200" height="200" rx="100" fill="white"/>
<path d="M29 100C29 109.849 30.9399 119.602 34.709 128.701C38.4781 137.801 44.0026 146.069 50.967 153.033C57.9314 159.997 66.1993 165.522 75.2987 169.291C84.3982 173.06 94.1509 175 104 175C113.849 175 123.602 173.06 132.701 169.291C141.801 165.522 150.069 159.997 157.033 153.033C163.997 146.069 169.522 137.801 173.291 128.701C177.06 119.602 179 109.849 179 100C179 90.1509 177.06 80.3982 173.291 71.2987C169.522 62.1993 163.997 53.9314 157.033 46.967C150.069 40.0026 141.801 34.4781 132.701 30.709C123.602 26.9399 113.849 25 104 25C94.1509 25 84.3982 26.9399 75.2987 30.709C66.1993 34.4781 57.9314 40.0026 50.967 46.967C44.0026 53.9314 38.4781 62.1993 34.709 71.2987C30.9399 80.3982 29 90.1509 29 100Z" stroke="#F27830" stroke-width="2" stroke-linecap="round" stroke-linejoin="round"/>
<path d="M79 83.3335C79 89.9639 81.6339 96.3228 86.3223 101.011C91.0107 105.7 97.3696 108.333 104 108.333C110.63 108.333 116.989 105.7 121.678 101.011C126.366 96.3228 129 89.9639 129 83.3335C129 76.7031 126.366 70.3442 121.678 65.6558C116.989 60.9674 110.63 58.3335 104 58.3335C97.3696 58.3335 91.0107 60.9674 86.3223 65.6558C81.6339 70.3442 79 76.7031 79 83.3335Z" stroke="#F27830" stroke-width="2" stroke-linecap="round" stroke-linejoin="round"/>
<path d="M55.3999 157.075C57.4625 150.21 61.683 144.193 67.4353 139.917C73.1876 135.64 80.1653 133.331 87.3332 133.333H120.667C127.844 133.331 134.83 135.645 140.586 139.932C146.343 144.218 150.562 150.248 152.617 157.125" stroke="#F27830" stroke-width="2" stroke-linecap="round" stroke-linejoin="round"/>
<g clip-path="url(#clip1_481_1028)">
<rect width="40" height="40" transform="translate(129 145)" fill="white"/>
<path d="M137.333 156.667H139C139.884 156.667 140.732 156.315 141.357 155.69C141.982 155.065 142.333 154.217 142.333 153.333C142.333 152.891 142.509 152.467 142.821 152.155C143.134 151.842 143.558 151.667 144 151.667H154C154.442 151.667 154.866 151.842 155.179 152.155C155.491 152.467 155.667 152.891 155.667 153.333C155.667 154.217 156.018 155.065 156.643 155.69C157.268 156.315 158.116 156.667 159 156.667H160.667C161.551 156.667 162.399 157.018 163.024 157.643C163.649 158.268 164 159.116 164 160V175C164 175.884 163.649 176.732 163.024 177.357C162.399 177.982 161.551 178.333 160.667 178.333H137.333C136.449 178.333 135.601 177.982 134.976 177.357C134.351 176.732 134 175.884 134 175V160C134 159.116 134.351 158.268 134.976 157.643C135.601 157.018 136.449 156.667 137.333 156.667Z" stroke="#424659" stroke-width="2" stroke-linecap="round" stroke-linejoin="round"/>
<path d="M144 166.667C144 167.993 144.527 169.264 145.464 170.202C146.402 171.14 147.674 171.667 149 171.667C150.326 171.667 151.598 171.14 152.536 170.202C153.473 169.264 154 167.993 154 166.667C154 165.34 153.473 164.069 152.536 163.131C151.598 162.193 150.326 161.667 149 161.667C147.674 161.667 146.402 162.193 145.464 163.131C144.527 164.069 144 165.34 144 166.667Z" stroke="#424659" stroke-width="2" stroke-linecap="round" stroke-linejoin="round"/>
</g>
</g>
</g>
<defs>
<filter id="filter0_d_481_1028" x="0" y="0" width="208" height="208" filterUnits="userSpaceOnUse" color-interpolation-filters="sRGB">
<feFlood flood-opacity="0" result="BackgroundImageFix"/>
<feColorMatrix in="SourceAlpha" type="matrix" values="0 0 0 0 0 0 0 0 0 0 0 0 0 0 0 0 0 0 127 0" result="hardAlpha"/>
<feOffset dy="4"/>
<feGaussianBlur stdDeviation="2"/>
<feComposite in2="hardAlpha" operator="out"/>
<feColorMatrix type="matrix" values="0 0 0 0 0 0 0 0 0 0 0 0 0 0 0 0 0 0 0.25 0"/>
<feBlend mode="normal" in2="BackgroundImageFix" result="effect1_dropShadow_481_1028"/>
<feBlend mode="normal" in="SourceGraphic" in2="effect1_dropShadow_481_1028" result="shape"/>
</filter>
<clipPath id="clip0_481_1028">
<rect x="4" width="200" height="200" rx="100" fill="white"/>
</clipPath>
<clipPath id="clip1_481_1028">
<rect width="40" height="40" fill="white" transform="translate(129 145)"/>
</clipPath>
</defs>
</svg>
