<svg width="22" height="34" viewBox="0 0 22 34" fill="none" xmlns="http://www.w3.org/2000/svg">
<path d="M20 0.333252C20.4082 0.333306 20.8022 0.483179 21.1073 0.754444C21.4123 1.02571 21.6072 1.3995 21.655 1.80492L21.6667 1.99992V8.66658C21.6666 9.07481 21.5167 9.46881 21.2455 9.77387C20.9742 10.0789 20.6004 10.2738 20.195 10.3216L20 10.3333H15V11.9999H20C20.2373 12 20.4718 12.0508 20.6878 12.1488C20.9039 12.2468 21.0965 12.3898 21.2529 12.5682C21.4093 12.7467 21.5257 12.9564 21.5945 13.1835C21.6633 13.4106 21.6827 13.6497 21.6517 13.8849L21.6183 14.0716L19.9517 20.7383C19.8689 21.0674 19.6877 21.3635 19.4321 21.5869C19.1766 21.8103 18.8589 21.9503 18.5217 21.9883L18.3333 21.9999H15V31.9999C14.9999 32.4081 14.8501 32.8021 14.5788 33.1072C14.3075 33.4123 13.9338 33.6072 13.5283 33.6549L13.3333 33.6666H6.66667C6.25844 33.6665 5.86444 33.5167 5.55938 33.2454C5.25432 32.9741 5.05943 32.6003 5.01167 32.1949L5 31.9999V21.9999H1.66667C1.25844 21.9999 0.864438 21.85 0.55938 21.5787C0.254322 21.3075 0.0594286 20.9337 0.0116666 20.5283L0 20.3333V13.6666C5.38509e-05 13.2584 0.149927 12.8644 0.421192 12.5593C0.692457 12.2542 1.06625 12.0593 1.47167 12.0116L1.66667 11.9999H5V10.3333C4.99991 7.74595 6.00261 5.25932 7.79744 3.3958C9.59228 1.53228 12.0395 0.436942 14.625 0.339919L15 0.333252H20Z" fill="black"/>
</svg>
