<svg width="30" height="25" viewBox="0 0 30 25" fill="none" xmlns="http://www.w3.org/2000/svg">
<path d="M15 7.52324L11.095 3.61657C10.0533 2.61037 8.6581 2.05358 7.20985 2.06613C5.7616 2.07867 4.37623 2.65956 3.35212 3.68366C2.32802 4.70777 1.74713 6.09315 1.73458 7.54139C1.72203 8.98964 2.27883 10.3849 3.28503 11.4266L7.19003 15.3332M7.19003 15.3332L15 23.1432L26.7167 11.4266C27.7227 10.3847 28.2792 8.98931 28.2663 7.54106C28.2535 6.09281 27.6723 4.70756 26.648 3.68367C25.6236 2.65979 24.2381 2.0792 22.7899 2.06696C21.3416 2.05472 19.9465 2.61181 18.905 3.61824L7.19003 15.3332Z" stroke="black" stroke-width="3" stroke-linecap="round" stroke-linejoin="round"/>
</svg>
