<svg width="38" height="30" viewBox="0 0 38 30" fill="none" xmlns="http://www.w3.org/2000/svg">
<path d="M35.6666 1.68336C33.9999 2.50002 32.3666 2.83169 30.6666 3.33336C28.7983 1.22502 26.0283 1.10836 23.3666 2.10502C20.7049 3.10169 18.9616 5.53836 18.9999 8.33336V10C13.5916 10.1384 8.77492 7.67502 5.66659 3.33336C5.66659 3.33336 -1.30341 15.7217 12.3333 21.6667C9.21325 23.745 6.10159 25.1467 2.33325 25C7.84659 28.005 13.8549 29.0384 19.0566 27.5284C25.0233 25.795 29.9266 21.3234 31.8083 14.625C32.3696 12.5878 32.6483 10.4831 32.6366 8.37002C32.6366 7.95502 35.1533 3.75002 35.6666 1.68169V1.68336Z" stroke="black" stroke-width="3" stroke-linecap="round" stroke-linejoin="round"/>
</svg>
