<svg width="45" height="45" viewBox="0 0 45 45" fill="none" xmlns="http://www.w3.org/2000/svg">
<g clip-path="url(#clip0_478_531)">
<path d="M18.75 9.375C18.75 8.38044 19.1451 7.42661 19.8484 6.72335C20.5516 6.02009 21.5054 5.625 22.5 5.625C23.4946 5.625 24.4484 6.02009 25.1516 6.72335C25.8549 7.42661 26.25 8.38044 26.25 9.375C28.4033 10.3932 30.2389 11.9781 31.5601 13.9599C32.8813 15.9418 33.6383 18.2458 33.75 20.625V26.25C33.8911 27.4157 34.3039 28.532 34.9553 29.509C35.6066 30.486 36.4782 31.2964 37.5 31.875H7.5C8.52176 31.2964 9.39339 30.486 10.0447 29.509C10.6961 28.532 11.1089 27.4157 11.25 26.25V20.625C11.3617 18.2458 12.1187 15.9418 13.4399 13.9599C14.7611 11.9781 16.5967 10.3932 18.75 9.375Z" stroke="#F27830" stroke-width="2" stroke-linecap="round" stroke-linejoin="round"/>
<path d="M16.875 31.875V33.75C16.875 35.2418 17.4676 36.6726 18.5225 37.7275C19.5774 38.7824 21.0082 39.375 22.5 39.375C23.9918 39.375 25.4226 38.7824 26.4775 37.7275C27.5324 36.6726 28.125 35.2418 28.125 33.75V31.875" stroke="#F27830" stroke-width="2" stroke-linecap="round" stroke-linejoin="round"/>
<circle cx="33" cy="11" r="5" fill="#D80027"/>
</g>
<defs>
<clipPath id="clip0_478_531">
<rect width="45" height="45" fill="white"/>
</clipPath>
</defs>
</svg>
