<svg width="45" height="45" viewBox="0 0 45 45" fill="none" xmlns="http://www.w3.org/2000/svg">
<g clip-path="url(#clip0_478_525)">
<path d="M5.625 22.5C5.625 24.7161 6.06148 26.9104 6.90953 28.9578C7.75758 31.0052 9.00058 32.8654 10.5676 34.4324C12.1346 35.9994 13.9948 37.2424 16.0422 38.0905C18.0896 38.9385 20.2839 39.375 22.5 39.375C24.7161 39.375 26.9104 38.9385 28.9578 38.0905C31.0052 37.2424 32.8654 35.9994 34.4324 34.4324C35.9994 32.8654 37.2424 31.0052 38.0905 28.9578C38.9385 26.9104 39.375 24.7161 39.375 22.5C39.375 20.2839 38.9385 18.0896 38.0905 16.0422C37.2424 13.9948 35.9994 12.1346 34.4324 10.5676C32.8654 9.00058 31.0052 7.75758 28.9578 6.90953C26.9104 6.06148 24.7161 5.625 22.5 5.625C20.2839 5.625 18.0896 6.06148 16.0422 6.90953C13.9948 7.75758 12.1346 9.00058 10.5676 10.5676C9.00058 12.1346 7.75758 13.9948 6.90953 16.0422C6.06148 18.0896 5.625 20.2839 5.625 22.5Z" stroke="#F27830" stroke-width="2" stroke-linecap="round" stroke-linejoin="round"/>
<path d="M16.875 18.75C16.875 20.2418 17.4676 21.6726 18.5225 22.7275C19.5774 23.7824 21.0082 24.375 22.5 24.375C23.9918 24.375 25.4226 23.7824 26.4775 22.7275C27.5324 21.6726 28.125 20.2418 28.125 18.75C28.125 17.2582 27.5324 15.8274 26.4775 14.7725C25.4226 13.7176 23.9918 13.125 22.5 13.125C21.0082 13.125 19.5774 13.7176 18.5225 14.7725C17.4676 15.8274 16.875 17.2582 16.875 18.75Z" stroke="#F27830" stroke-width="2" stroke-linecap="round" stroke-linejoin="round"/>
<path d="M11.5649 35.3419C12.029 33.7973 12.9786 32.4435 14.2729 31.4812C15.5672 30.5189 17.1372 29.9995 18.7499 30H26.2499C27.8648 29.9994 29.4367 30.5201 30.7319 31.4846C32.0271 32.4491 32.9764 33.8058 33.4387 35.3531" stroke="#F27830" stroke-width="2" stroke-linecap="round" stroke-linejoin="round"/>
<circle cx="38" cy="11" r="5" fill="#3CCF17"/>
</g>
<defs>
<clipPath id="clip0_478_525">
<rect width="45" height="45" fill="white"/>
</clipPath>
</defs>
</svg>
